<?xml version="1.0" encoding="utf-8"?><svg xmlns="http://www.w3.org/2000/svg" xmlns:xlink="http://www.w3.org/1999/xlink"><symbol viewBox="0 0 49.771 49.771" id="amount" xmlns="http://www.w3.org/2000/svg"><path d="M47.349 5.524l-.058-.13c-.008-.018-.021-.033-.03-.051a2.383 2.383 0 0 0-.209-.359c-.037-.052-.085-.097-.126-.147-.062-.073-.122-.148-.194-.215-.05-.047-.109-.089-.164-.133a3.015 3.015 0 0 0-.243-.182c-.054-.034-.113-.065-.17-.097-.072-.041-.138-.086-.216-.123l-.005.01c-.754-.357-1.765-.544-3.043-.544-2.84 0-7.001.883-11.74 2.479-.272-.126-.542-.253-.817-.377C22.59 2.168 15.004 0 10.537 0a12 12 0 0 0-.847.029C7.81.164 6.616.772 6.134 1.841l-.001.004-.001.002-.052.115c-2.65 5.881-2.724 12.542-.402 18.416-.554.639-.97 1.243-1.249 1.812C1.733 23.234.351 24.515.351 26.008v.132c0 13.03 10.601 23.631 23.63 23.631 13.03 0 23.631-10.601 23.631-23.631v-.132c0-.373-.098-.736-.274-1.09 2.739-6.105 2.807-13.189.011-19.394zM29.908 30.275a88.988 88.988 0 0 1-7.885.175c-.154-.003-.304-.01-.457-.013-.5-.013-.999-.028-1.493-.049-.161-.007-.32-.016-.48-.024a79.55 79.55 0 0 1-1.421-.079c-.17-.011-.337-.024-.506-.036a76.404 76.404 0 0 1-1.33-.105c-.185-.016-.368-.034-.55-.051a80.978 80.978 0 0 1-1.816-.196 59.906 59.906 0 0 1-2.667-.384c-.219-.037-.44-.072-.655-.111-.305-.055-.599-.114-.893-.173-.169-.034-.343-.067-.508-.103-.33-.392-.644-.794-.944-1.205-.102-.139-.192-.285-.29-.427-.193-.279-.388-.556-.567-.843-.013-.02-.023-.041-.036-.061.37.041.768.061 1.196.061h.001c.605 0 1.271-.043 1.983-.12l.006.002.232-.027c.046-.005.098-.016.144-.021a29.58 29.58 0 0 0 1.588-.239c.101-.018.208-.041.311-.06.441-.083.895-.176 1.36-.28.184-.041.364-.079.551-.123a65.987 65.987 0 0 0 3.705-1.012 67.29 67.29 0 0 0 1.005-.319 73.157 73.157 0 0 0 3.616-1.268c.242-.092.484-.183.728-.277a93.687 93.687 0 0 0 1.92-.769l.489-.206a80.09 80.09 0 0 0 3.638-1.623c.33-.156.656-.313.982-.471l.006.002.388-.19c.164-.081.324-.163.487-.245.231-.115.461-.23.689-.346.385-.197.764-.394 1.141-.593.16-.085.323-.168.482-.253a79.375 79.375 0 0 0 1.606-.884l.122-.07a71.75 71.75 0 0 0 1.406-.82c.14-.083.275-.167.413-.251a68.59 68.59 0 0 0 1.047-.648c.154-.098.307-.195.458-.293.328-.211.646-.422.959-.634.135-.091.273-.182.405-.273.43-.296.849-.591 1.248-.884l1.151-.848-.045-.03c1.561-1.237 2.851-2.47 3.672-3.635l.011.032c.021.069.037.14.057.209.103.357.2.715.284 1.075.034.146.062.294.093.44.061.286.119.571.168.858.029.167.052.336.076.504a22.184 22.184 0 0 1 .153 1.333c.022.268.039.536.051.805.008.173.016.346.02.519.006.276.004.552 0 .828-.003.164-.003.327-.009.49-.012.308-.034.615-.059.921-.011.129-.016.259-.029.388-.043.436-.098.871-.168 1.304-.007.044-.018.088-.025.132-.065.387-.139.774-.225 1.157-.032.142-.07.282-.105.424-.07.285-.141.569-.223.852-.047.163-.099.324-.15.486a21.18 21.18 0 0 1-.442 1.273c-.096.25-.196.498-.301.744-.07.163-.14.326-.213.488-.072.158-.151.313-.226.469-.222.458-.459.904-.708 1.339l-.1.177-.047.082c-.289.49-.591.967-.911 1.422-2.852 1.27-7.835 2.197-13.564 2.581zM6.931 5.385C9.827 9.5 18.439 14.474 25.025 17.441c1.087.49 2.182.95 3.276 1.394-.243.112-.472.224-.72.336-.694.313-1.383.61-2.07.9-.153.064-.306.13-.459.193-.637.265-1.27.519-1.898.763l-.552.212c-.57.217-1.136.427-1.694.626l-.492.173c-.544.19-1.081.369-1.611.54l-.486.157c-.603.189-1.195.367-1.775.53l-.309.086c-1.979.546-3.809.936-5.41 1.14a14.548 14.548 0 0 1-.867-.349c-.4-.568-.77-1.168-1.119-1.787-.039-.068-.079-.136-.117-.206a22.393 22.393 0 0 1-.963-1.967l-.017-.039a21.727 21.727 0 0 1-.811-14.758zM6.026 23.99a.543.543 0 0 1-.025-.248c.003-.039.017-.089.025-.134.014-.071.03-.143.058-.224.086-.252.24-.565.515-.959.011.021.024.041.035.063.237.462.49.917.759 1.365.045.071.085.147.13.22.114.186.237.367.357.551-1.169-.086-1.733-.375-1.852-.63h-.001l-.001-.004zM45.142 5.932c.043.023.085.046.127.075.019.014.034.028.051.042a.528.528 0 0 1 .143.164l.006.008c.318.729-1.132 2.682-4.406 5.199-.337-.218-.68-.435-1.03-.652l-.335-.206A77.025 77.025 0 0 0 35.913 8.4l-.019-.01a87.905 87.905 0 0 0-2.127-1.101c3.699-1.125 6.883-1.735 9.123-1.735 1.158.001 1.87.171 2.252.378zM4.091 24.505c.03.104.068.206.113.306h-.001l.004.008v.001l.05.11c.251.557.527 1.101.822 1.637.096.174.204.342.304.514.208.356.418.711.645 1.056.037.057.068.117.106.173l-.265-.088a15.97 15.97 0 0 1-.519-.183c-.113-.042-.232-.084-.337-.126a14.21 14.21 0 0 1-.882-.39 8.351 8.351 0 0 1-.621-.336 6.137 6.137 0 0 1-.323-.208c-.044-.031-.089-.062-.129-.092a3.598 3.598 0 0 1-.284-.232c-.024-.022-.043-.043-.065-.064a2.295 2.295 0 0 1-.164-.179c-.012-.015-.027-.031-.037-.046a1.08 1.08 0 0 1-.108-.18l-.015-.038a.429.429 0 0 1-.033-.141c-.001-.275.399-.843 1.739-1.502z"/></symbol><symbol viewBox="0 0 24 24" id="basket-1" xmlns="http://www.w3.org/2000/svg"><path d="M4.559 7L9.26 2.298a1.02 1.02 0 1 1 1.441 1.442L7.441 7H4.559zm12 0h2.883L14.74 2.298a1.02 1.02 0 1 0-1.441 1.442L16.559 7zm3.703 4l-.016.041L16.648 20H7.352l-3.597-8.961L3.739 11h16.523zM24 9H0v2h.643c.535 0 1.021.304 1.256.784L6 22h12l4.102-10.214A1.397 1.397 0 0 1 23.358 11H24V9zm-14 5a1 1 0 1 0-2 0v3a1 1 0 1 0 2 0v-3zm3 0a1 1 0 1 0-2 0v3a1 1 0 1 0 2 0v-3zm3 0a1 1 0 1 0-2 0v3a1 1 0 1 0 2 0v-3z"/></symbol><symbol viewBox="0 0 24 24" id="basket-2" xmlns="http://www.w3.org/2000/svg"><path d="M24 8v2h-.642c-.535 0-1.023.305-1.257.786L18 21H6L1.899 10.784A1.397 1.397 0 0 0 .643 10H0V8h3l4.352 11h9.296L21 8h3zm-14 4H8l4 4 4-4h-2s-.288-7.383-7-9c3.94 2.58 3 9 3 9z"/></symbol><symbol viewBox="0 0 24 24" id="credit-card" xmlns="http://www.w3.org/2000/svg"><path d="M22 4H2a2 2 0 0 0-2 2v12a2 2 0 0 0 2 2h20a2 2 0 0 0 2-2V6a2 2 0 0 0-2-2zm0 13.5a.5.5 0 0 1-.5.5h-19a.5.5 0 0 1-.5-.5V11h20v6.5zM22 8H2V6.5a.5.5 0 0 1 .5-.5h19a.5.5 0 0 1 .5.5V8zm-9 6H4v-1h9v1zm-3 2H4v-1h6v1zm10-2h-3v-1h3v1z"/></symbol><symbol fill-rule="evenodd" clip-rule="evenodd" viewBox="0 0 24 24" id="delivery" xmlns="http://www.w3.org/2000/svg"><path d="M3 18H1a1 1 0 0 1-1-1v-2h15V6h4.667c1.117 0 1.6.576 1.936 1.107.594.94 1.536 2.432 2.109 3.378.188.312.288.67.288 1.035V16c0 1.121-.728 2-2 2h-1a3.001 3.001 0 0 1-6 0H9a3.001 3.001 0 0 1-6 0zm3-1.2a1.201 1.201 0 0 1 0 2.4 1.201 1.201 0 0 1 0-2.4zm12 0a1.201 1.201 0 0 1 0 2.4 1.201 1.201 0 0 1 0-2.4zM14 14H0V4a1 1 0 0 1 1-1h12a1 1 0 0 1 1 1v10zm3-6v3h4.715l-1.427-2.496A.999.999 0 0 0 19.42 8H17z"/></symbol><symbol viewBox="0 0 148.602 148.602" id="diameter" xmlns="http://www.w3.org/2000/svg"><path d="M74.301 0C33.333 0 0 33.333 0 74.301c0 40.969 33.333 74.301 74.301 74.301 40.969 0 74.301-33.332 74.301-74.301C148.602 33.333 115.27 0 74.301 0zm58.467 77.954h3.537c-1.897 32.56-28.978 58.468-62.004 58.468-34.254 0-62.121-27.867-62.121-62.121 0-34.253 27.867-62.12 62.121-62.12 33.846 0 61.436 27.211 62.09 60.902h-3.623c-1.348 0-2.437 1.089-2.437 2.437s1.089 2.434 2.437 2.434z"/><path d="M110.842 73.083h-7.308c-1.349 0-2.437 1.089-2.437 2.437s1.088 2.436 2.437 2.436h7.308a2.438 2.438 0 0 0 0-4.873zm-14.615 0h-7.309c-1.348 0-2.438 1.089-2.438 2.437s1.09 2.436 2.438 2.436h7.309a2.438 2.438 0 0 0 0-4.873zm29.232 0h-7.309c-1.349 0-2.437 1.089-2.437 2.437s1.088 2.436 2.437 2.436h7.309c1.348 0 2.436-1.088 2.436-2.436s-1.088-2.437-2.436-2.437zm-43.85 0H74.3c-1.347 0-2.436 1.089-2.436 2.437s1.089 2.436 2.436 2.436h7.31c1.347 0 2.436-1.088 2.436-2.436s-1.09-2.437-2.437-2.437z"/></symbol><symbol viewBox="0 0 129 129" id="down-arrow" xmlns="http://www.w3.org/2000/svg"><path d="M121.3 34.6c-1.6-1.6-4.2-1.6-5.8 0l-51 51.1-51.1-51.1c-1.6-1.6-4.2-1.6-5.8 0-1.6 1.6-1.6 4.2 0 5.8l53.9 53.9c.8.8 1.8 1.2 2.9 1.2 1 0 2.1-.4 2.9-1.2l53.9-53.9c1.7-1.6 1.7-4.2.1-5.8z"/></symbol><symbol viewBox="0 0 24 24" id="eye" xmlns="http://www.w3.org/2000/svg"><path d="M15 12c0 1.654-1.346 3-3 3s-3-1.346-3-3 1.346-3 3-3 3 1.346 3 3zm9-.449S19.748 20 12.015 20C4.835 20 0 11.551 0 11.551S4.446 4 12.015 4C19.709 4 24 11.551 24 11.551zM17 12c0-2.757-2.243-5-5-5s-5 2.243-5 5 2.243 5 5 5 5-2.243 5-5z"/></symbol><symbol viewBox="0 0 24 24" id="favorite" xmlns="http://www.w3.org/2000/svg"><path d="M17.516 3c2.382 0 4.487 1.564 4.487 4.712 0 4.963-6.528 8.297-10.003 11.935C8.525 16.009 1.998 12.676 1.998 7.713 1.998 4.658 4.006 3 6.485 3 9.665 3 11.331 6.644 12 8.312 12.667 6.646 14.333 3 17.516 3zm0-2C15.342 1 13.17 2.062 12 4.419 10.83 2.062 8.658 1 6.485 1 3.082 1 .001 3.39.001 7.689.001 14.959 9.904 18.627 12 23c2.096-4.373 12-8.041 12-15.311C24 3.103 20.586 1 17.516 1z"/></symbol><symbol viewBox="0 0 24 24" id="magnifier" xmlns="http://www.w3.org/2000/svg"><path d="M21.172 24l-7.387-7.387A8.945 8.945 0 0 1 9 18c-4.971 0-9-4.029-9-9s4.029-9 9-9 9 4.029 9 9a8.951 8.951 0 0 1-1.387 4.785L24 21.172 21.172 24zM9 16c3.859 0 7-3.14 7-7s-3.141-7-7-7-7 3.14-7 7 3.141 7 7 7z"/></symbol><symbol viewBox="0 0 24 24" id="mark" xmlns="http://www.w3.org/2000/svg"><path d="M12 2c5.514 0 10 4.486 10 10s-4.486 10-10 10S2 17.514 2 12 6.486 2 12 2zm0-2C5.373 0 0 5.373 0 12s5.373 12 12 12 12-5.373 12-12S18.627 0 12 0zm6.25 8.891l-1.421-1.409-6.105 6.218-3.078-2.937-1.396 1.436 4.5 4.319 7.5-7.627z"/></symbol><symbol viewBox="0 0 60 60" id="play" xmlns="http://www.w3.org/2000/svg"><path d="M30 0C13.458 0 0 13.458 0 30s13.458 30 30 30 30-13.458 30-30S46.542 0 30 0zm15.563 30.826l-22 15a1.002 1.002 0 0 1-1.03.058A.999.999 0 0 1 22 45V15a.999.999 0 0 1 1.564-.826l22 15a1.001 1.001 0 0 1-.001 1.652z"/></symbol><symbol viewBox="0 0 24 24" id="search" xmlns="http://www.w3.org/2000/svg"><path d="M12 2c3.196 0 6 2.618 6 5.602 0 3.093-2.493 7.132-6 12.661-3.507-5.529-6-9.568-6-12.661C6 4.618 8.804 2 12 2m0-2C7.802 0 4 3.403 4 7.602 4 11.8 7.469 16.812 12 24c4.531-7.188 8-12.2 8-16.398C20 3.403 16.199 0 12 0zm0 11a3 3 0 1 1 0-6 3 3 0 0 1 0 6z"/></symbol><symbol viewBox="0 0 24 24" id="user" xmlns="http://www.w3.org/2000/svg"><path d="M23.995 24H22c0-3.104.119-3.55-1.761-3.986-2.877-.664-5.594-1.291-6.584-3.458-.361-.791-.601-2.095.31-3.814 2.042-3.857 2.554-7.165 1.403-9.076-1.341-2.229-5.413-2.241-6.766.034-1.154 1.937-.635 5.227 1.424 9.025.93 1.712.697 3.02.338 3.815-.982 2.178-3.675 2.799-6.525 3.456C1.875 20.45 2 20.866 2 24H.005L0 22.759c0-2.52.199-3.975 3.178-4.663 3.365-.777 6.688-1.473 5.09-4.418C3.535 4.949 6.918 0 12 0c4.983 0 8.451 4.766 3.732 13.678-1.551 2.928 1.65 3.624 5.09 4.418 2.979.688 3.178 2.143 3.178 4.663L23.995 24zm-13.478-6l.91 2h1.164l.92-2h-2.994zm2.995 6l-.704-3h-1.615l-.704 3h3.023z"/></symbol></svg>