<?xml version="1.0" encoding="utf-8"?><svg xmlns="http://www.w3.org/2000/svg" xmlns:xlink="http://www.w3.org/1999/xlink"><symbol viewBox="0 0 24 24" id="basket-1" xmlns="http://www.w3.org/2000/svg"><path d="M4.559 7L9.26 2.298a1.02 1.02 0 1 1 1.441 1.442L7.441 7H4.559zm12 0h2.883L14.74 2.298a1.02 1.02 0 1 0-1.441 1.442L16.559 7zm3.703 4l-.016.041L16.648 20H7.352l-3.597-8.961L3.739 11h16.523zM24 9H0v2h.643c.535 0 1.021.304 1.256.784L6 22h12l4.102-10.214A1.397 1.397 0 0 1 23.358 11H24V9zm-14 5a1 1 0 1 0-2 0v3a1 1 0 1 0 2 0v-3zm3 0a1 1 0 1 0-2 0v3a1 1 0 1 0 2 0v-3zm3 0a1 1 0 1 0-2 0v3a1 1 0 1 0 2 0v-3z"/></symbol><symbol viewBox="0 0 24 24" id="basket-2" xmlns="http://www.w3.org/2000/svg"><path d="M24 8v2h-.642c-.535 0-1.023.305-1.257.786L18 21H6L1.899 10.784A1.397 1.397 0 0 0 .643 10H0V8h3l4.352 11h9.296L21 8h3zm-14 4H8l4 4 4-4h-2s-.288-7.383-7-9c3.94 2.58 3 9 3 9z"/></symbol><symbol viewBox="0 0 24 24" id="credit-card" xmlns="http://www.w3.org/2000/svg"><path d="M22 4H2a2 2 0 0 0-2 2v12a2 2 0 0 0 2 2h20a2 2 0 0 0 2-2V6a2 2 0 0 0-2-2zm0 13.5a.5.5 0 0 1-.5.5h-19a.5.5 0 0 1-.5-.5V11h20v6.5zM22 8H2V6.5a.5.5 0 0 1 .5-.5h19a.5.5 0 0 1 .5.5V8zm-9 6H4v-1h9v1zm-3 2H4v-1h6v1zm10-2h-3v-1h3v1z"/></symbol><symbol fill-rule="evenodd" clip-rule="evenodd" viewBox="0 0 24 24" id="delivery" xmlns="http://www.w3.org/2000/svg"><path d="M3 18H1a1 1 0 0 1-1-1v-2h15V6h4.667c1.117 0 1.6.576 1.936 1.107.594.94 1.536 2.432 2.109 3.378.188.312.288.67.288 1.035V16c0 1.121-.728 2-2 2h-1a3.001 3.001 0 0 1-6 0H9a3.001 3.001 0 0 1-6 0zm3-1.2a1.201 1.201 0 0 1 0 2.4 1.201 1.201 0 0 1 0-2.4zm12 0a1.201 1.201 0 0 1 0 2.4 1.201 1.201 0 0 1 0-2.4zM14 14H0V4a1 1 0 0 1 1-1h12a1 1 0 0 1 1 1v10zm3-6v3h4.715l-1.427-2.496A.999.999 0 0 0 19.42 8H17z"/></symbol><symbol viewBox="0 0 24 24" id="eye" xmlns="http://www.w3.org/2000/svg"><path d="M15 12c0 1.654-1.346 3-3 3s-3-1.346-3-3 1.346-3 3-3 3 1.346 3 3zm9-.449S19.748 20 12.015 20C4.835 20 0 11.551 0 11.551S4.446 4 12.015 4C19.709 4 24 11.551 24 11.551zM17 12c0-2.757-2.243-5-5-5s-5 2.243-5 5 2.243 5 5 5 5-2.243 5-5z"/></symbol><symbol viewBox="0 0 24 24" id="favorite" xmlns="http://www.w3.org/2000/svg"><path d="M17.516 3c2.382 0 4.487 1.564 4.487 4.712 0 4.963-6.528 8.297-10.003 11.935C8.525 16.009 1.998 12.676 1.998 7.713 1.998 4.658 4.006 3 6.485 3 9.665 3 11.331 6.644 12 8.312 12.667 6.646 14.333 3 17.516 3zm0-2C15.342 1 13.17 2.062 12 4.419 10.83 2.062 8.658 1 6.485 1 3.082 1 .001 3.39.001 7.689.001 14.959 9.904 18.627 12 23c2.096-4.373 12-8.041 12-15.311C24 3.103 20.586 1 17.516 1z"/></symbol><symbol viewBox="0 0 24 24" id="magnifier" xmlns="http://www.w3.org/2000/svg"><path d="M21.172 24l-7.387-7.387A8.945 8.945 0 0 1 9 18c-4.971 0-9-4.029-9-9s4.029-9 9-9 9 4.029 9 9a8.951 8.951 0 0 1-1.387 4.785L24 21.172 21.172 24zM9 16c3.859 0 7-3.14 7-7s-3.141-7-7-7-7 3.14-7 7 3.141 7 7 7z"/></symbol><symbol viewBox="0 0 24 24" id="mark" xmlns="http://www.w3.org/2000/svg"><path d="M12 2c5.514 0 10 4.486 10 10s-4.486 10-10 10S2 17.514 2 12 6.486 2 12 2zm0-2C5.373 0 0 5.373 0 12s5.373 12 12 12 12-5.373 12-12S18.627 0 12 0zm6.25 8.891l-1.421-1.409-6.105 6.218-3.078-2.937-1.396 1.436 4.5 4.319 7.5-7.627z"/></symbol><symbol viewBox="0 0 24 24" id="search" xmlns="http://www.w3.org/2000/svg"><path d="M12 2c3.196 0 6 2.618 6 5.602 0 3.093-2.493 7.132-6 12.661-3.507-5.529-6-9.568-6-12.661C6 4.618 8.804 2 12 2m0-2C7.802 0 4 3.403 4 7.602 4 11.8 7.469 16.812 12 24c4.531-7.188 8-12.2 8-16.398C20 3.403 16.199 0 12 0zm0 11a3 3 0 1 1 0-6 3 3 0 0 1 0 6z"/></symbol><symbol viewBox="0 0 24 24" id="user" xmlns="http://www.w3.org/2000/svg"><path d="M23.995 24H22c0-3.104.119-3.55-1.761-3.986-2.877-.664-5.594-1.291-6.584-3.458-.361-.791-.601-2.095.31-3.814 2.042-3.857 2.554-7.165 1.403-9.076-1.341-2.229-5.413-2.241-6.766.034-1.154 1.937-.635 5.227 1.424 9.025.93 1.712.697 3.02.338 3.815-.982 2.178-3.675 2.799-6.525 3.456C1.875 20.45 2 20.866 2 24H.005L0 22.759c0-2.52.199-3.975 3.178-4.663 3.365-.777 6.688-1.473 5.09-4.418C3.535 4.949 6.918 0 12 0c4.983 0 8.451 4.766 3.732 13.678-1.551 2.928 1.65 3.624 5.09 4.418 2.979.688 3.178 2.143 3.178 4.663L23.995 24zm-13.478-6l.91 2h1.164l.92-2h-2.994zm2.995 6l-.704-3h-1.615l-.704 3h3.023z"/></symbol></svg>