<?xml version="1.0" encoding="utf-8"?><svg xmlns="http://www.w3.org/2000/svg" xmlns:xlink="http://www.w3.org/1999/xlink"><symbol viewBox="0 0 49.771 49.771" id="amount" xmlns="http://www.w3.org/2000/svg"><path d="M47.349 5.524l-.058-.13c-.008-.018-.021-.033-.03-.051a2.383 2.383 0 0 0-.209-.359c-.037-.052-.085-.097-.126-.147-.062-.073-.122-.148-.194-.215-.05-.047-.109-.089-.164-.133a3.015 3.015 0 0 0-.243-.182c-.054-.034-.113-.065-.17-.097-.072-.041-.138-.086-.216-.123l-.005.01c-.754-.357-1.765-.544-3.043-.544-2.84 0-7.001.883-11.74 2.479-.272-.126-.542-.253-.817-.377C22.59 2.168 15.004 0 10.537 0a12 12 0 0 0-.847.029C7.81.164 6.616.772 6.134 1.841l-.001.004-.001.002-.052.115c-2.65 5.881-2.724 12.542-.402 18.416-.554.639-.97 1.243-1.249 1.812C1.733 23.234.351 24.515.351 26.008v.132c0 13.03 10.601 23.631 23.63 23.631 13.03 0 23.631-10.601 23.631-23.631v-.132c0-.373-.098-.736-.274-1.09 2.739-6.105 2.807-13.189.011-19.394zM29.908 30.275a88.988 88.988 0 0 1-7.885.175c-.154-.003-.304-.01-.457-.013-.5-.013-.999-.028-1.493-.049-.161-.007-.32-.016-.48-.024a79.55 79.55 0 0 1-1.421-.079c-.17-.011-.337-.024-.506-.036a76.404 76.404 0 0 1-1.33-.105c-.185-.016-.368-.034-.55-.051a80.978 80.978 0 0 1-1.816-.196 59.906 59.906 0 0 1-2.667-.384c-.219-.037-.44-.072-.655-.111-.305-.055-.599-.114-.893-.173-.169-.034-.343-.067-.508-.103-.33-.392-.644-.794-.944-1.205-.102-.139-.192-.285-.29-.427-.193-.279-.388-.556-.567-.843-.013-.02-.023-.041-.036-.061.37.041.768.061 1.196.061h.001c.605 0 1.271-.043 1.983-.12l.006.002.232-.027c.046-.005.098-.016.144-.021a29.58 29.58 0 0 0 1.588-.239c.101-.018.208-.041.311-.06.441-.083.895-.176 1.36-.28.184-.041.364-.079.551-.123a65.987 65.987 0 0 0 3.705-1.012 67.29 67.29 0 0 0 1.005-.319 73.157 73.157 0 0 0 3.616-1.268c.242-.092.484-.183.728-.277a93.687 93.687 0 0 0 1.92-.769l.489-.206a80.09 80.09 0 0 0 3.638-1.623c.33-.156.656-.313.982-.471l.006.002.388-.19c.164-.081.324-.163.487-.245.231-.115.461-.23.689-.346.385-.197.764-.394 1.141-.593.16-.085.323-.168.482-.253a79.375 79.375 0 0 0 1.606-.884l.122-.07a71.75 71.75 0 0 0 1.406-.82c.14-.083.275-.167.413-.251a68.59 68.59 0 0 0 1.047-.648c.154-.098.307-.195.458-.293.328-.211.646-.422.959-.634.135-.091.273-.182.405-.273.43-.296.849-.591 1.248-.884l1.151-.848-.045-.03c1.561-1.237 2.851-2.47 3.672-3.635l.011.032c.021.069.037.14.057.209.103.357.2.715.284 1.075.034.146.062.294.093.44.061.286.119.571.168.858.029.167.052.336.076.504a22.184 22.184 0 0 1 .153 1.333c.022.268.039.536.051.805.008.173.016.346.02.519.006.276.004.552 0 .828-.003.164-.003.327-.009.49-.012.308-.034.615-.059.921-.011.129-.016.259-.029.388-.043.436-.098.871-.168 1.304-.007.044-.018.088-.025.132-.065.387-.139.774-.225 1.157-.032.142-.07.282-.105.424-.07.285-.141.569-.223.852-.047.163-.099.324-.15.486a21.18 21.18 0 0 1-.442 1.273c-.096.25-.196.498-.301.744-.07.163-.14.326-.213.488-.072.158-.151.313-.226.469-.222.458-.459.904-.708 1.339l-.1.177-.047.082c-.289.49-.591.967-.911 1.422-2.852 1.27-7.835 2.197-13.564 2.581zM6.931 5.385C9.827 9.5 18.439 14.474 25.025 17.441c1.087.49 2.182.95 3.276 1.394-.243.112-.472.224-.72.336-.694.313-1.383.61-2.07.9-.153.064-.306.13-.459.193-.637.265-1.27.519-1.898.763l-.552.212c-.57.217-1.136.427-1.694.626l-.492.173c-.544.19-1.081.369-1.611.54l-.486.157c-.603.189-1.195.367-1.775.53l-.309.086c-1.979.546-3.809.936-5.41 1.14a14.548 14.548 0 0 1-.867-.349c-.4-.568-.77-1.168-1.119-1.787-.039-.068-.079-.136-.117-.206a22.393 22.393 0 0 1-.963-1.967l-.017-.039a21.727 21.727 0 0 1-.811-14.758zM6.026 23.99a.543.543 0 0 1-.025-.248c.003-.039.017-.089.025-.134.014-.071.03-.143.058-.224.086-.252.24-.565.515-.959.011.021.024.041.035.063.237.462.49.917.759 1.365.045.071.085.147.13.22.114.186.237.367.357.551-1.169-.086-1.733-.375-1.852-.63h-.001l-.001-.004zM45.142 5.932c.043.023.085.046.127.075.019.014.034.028.051.042a.528.528 0 0 1 .143.164l.006.008c.318.729-1.132 2.682-4.406 5.199-.337-.218-.68-.435-1.03-.652l-.335-.206A77.025 77.025 0 0 0 35.913 8.4l-.019-.01a87.905 87.905 0 0 0-2.127-1.101c3.699-1.125 6.883-1.735 9.123-1.735 1.158.001 1.87.171 2.252.378zM4.091 24.505c.03.104.068.206.113.306h-.001l.004.008v.001l.05.11c.251.557.527 1.101.822 1.637.096.174.204.342.304.514.208.356.418.711.645 1.056.037.057.068.117.106.173l-.265-.088a15.97 15.97 0 0 1-.519-.183c-.113-.042-.232-.084-.337-.126a14.21 14.21 0 0 1-.882-.39 8.351 8.351 0 0 1-.621-.336 6.137 6.137 0 0 1-.323-.208c-.044-.031-.089-.062-.129-.092a3.598 3.598 0 0 1-.284-.232c-.024-.022-.043-.043-.065-.064a2.295 2.295 0 0 1-.164-.179c-.012-.015-.027-.031-.037-.046a1.08 1.08 0 0 1-.108-.18l-.015-.038a.429.429 0 0 1-.033-.141c-.001-.275.399-.843 1.739-1.502z"/></symbol><symbol viewBox="0 0 24 24" id="basket-1" xmlns="http://www.w3.org/2000/svg"><path d="M4.559 7L9.26 2.298a1.02 1.02 0 1 1 1.441 1.442L7.441 7H4.559zm12 0h2.883L14.74 2.298a1.02 1.02 0 1 0-1.441 1.442L16.559 7zm3.703 4l-.016.041L16.648 20H7.352l-3.597-8.961L3.739 11h16.523zM24 9H0v2h.643c.535 0 1.021.304 1.256.784L6 22h12l4.102-10.214A1.397 1.397 0 0 1 23.358 11H24V9zm-14 5a1 1 0 1 0-2 0v3a1 1 0 1 0 2 0v-3zm3 0a1 1 0 1 0-2 0v3a1 1 0 1 0 2 0v-3zm3 0a1 1 0 1 0-2 0v3a1 1 0 1 0 2 0v-3z"/></symbol><symbol viewBox="0 0 24 24" id="basket-2" xmlns="http://www.w3.org/2000/svg"><path d="M24 8v2h-.642c-.535 0-1.023.305-1.257.786L18 21H6L1.899 10.784A1.397 1.397 0 0 0 .643 10H0V8h3l4.352 11h9.296L21 8h3zm-14 4H8l4 4 4-4h-2s-.288-7.383-7-9c3.94 2.58 3 9 3 9z"/></symbol><symbol viewBox="0 0 512 512" id="best-brand" xmlns="http://www.w3.org/2000/svg"><path d="M472.208 201.712c9.271-9.037 12.544-22.3 8.544-34.613-4.001-12.313-14.445-21.118-27.257-22.979l-112.03-16.279a6.75 6.75 0 0 1-5.084-3.694L286.28 22.632c-5.729-11.61-17.331-18.822-30.278-18.822s-24.549 7.212-30.278 18.822l-50.101 101.516a6.756 6.756 0 0 1-5.085 3.694L58.51 144.12c-12.812 1.861-23.255 10.666-27.257 22.979-4.002 12.313-.728 25.576 8.544 34.613l81.065 79.019a6.755 6.755 0 0 1 1.942 5.978l-19.137 111.576c-2.188 12.761 2.958 25.414 13.432 33.024 10.474 7.612 24.102 8.595 35.56 2.572l100.201-52.679a6.751 6.751 0 0 1 6.286 0l100.202 52.679c4.984 2.62 10.377 3.915 15.744 3.914 6.97 0 13.896-2.184 19.813-6.487 10.474-7.611 15.621-20.265 13.432-33.024L389.2 286.708a6.758 6.758 0 0 1 1.942-5.978l81.066-79.018zm-109.629 89.564l19.137 111.578c.64 3.734-1.665 5.863-2.686 6.604-1.022.74-3.76 2.277-7.112.513l-100.202-52.679a33.76 33.76 0 0 0-31.424-.001l-100.201 52.678c-3.354 1.763-6.091.228-7.112-.513s-3.327-2.87-2.686-6.604l19.137-111.576a33.755 33.755 0 0 0-9.711-29.886l-81.065-79.019c-2.713-2.646-2.099-5.723-1.708-6.923.389-1.201 1.702-4.052 5.451-4.596l112.027-16.279a33.76 33.76 0 0 0 25.424-18.471l50.101-101.516c1.677-3.397 4.793-3.764 6.056-3.764 1.261 0 4.377.366 6.055 3.764v.001l50.101 101.516a33.754 33.754 0 0 0 25.422 18.471l112.029 16.279c3.749.544 5.061 3.395 5.451 4.596.39 1.201 1.005 4.279-1.709 6.923l-81.065 79.019a33.754 33.754 0 0 0-9.71 29.885zm51.204-268.651c-6.036-4.384-14.481-3.046-18.865 2.988l-14.337 19.732c-4.384 6.034-3.047 14.481 2.988 18.865a13.456 13.456 0 0 0 7.928 2.58c4.177 0 8.295-1.931 10.937-5.567l14.337-19.732c4.384-6.035 3.047-14.482-2.988-18.866zM131.36 45.265l-14.337-19.732c-4.383-6.032-12.829-7.37-18.865-2.988-6.034 4.384-7.372 12.831-2.988 18.865l14.337 19.732a13.485 13.485 0 0 0 10.939 5.569c2.753 0 5.531-.839 7.927-2.581 6.034-4.383 7.372-12.83 2.987-18.865zM49.552 306.829c-2.305-7.093-9.924-10.976-17.019-8.671l-23.197 7.538c-7.095 2.305-10.976 9.926-8.671 17.019 1.854 5.709 7.149 9.337 12.842 9.337 1.383 0 2.79-.215 4.177-.666l23.197-7.538c7.094-2.305 10.976-9.924 8.671-17.019zm206.453 149.957c-7.459 0-13.506 6.047-13.506 13.506v24.392c0 7.459 6.047 13.506 13.506 13.506 7.459 0 13.506-6.047 13.506-13.506v-24.392c0-7.46-6.046-13.506-13.506-13.506zm246.659-151.071l-23.197-7.538c-7.092-2.303-14.714 1.577-17.019 8.672-2.305 7.095 1.576 14.714 8.671 17.019l23.197 7.538a13.51 13.51 0 0 0 4.176.664c5.694 0 10.989-3.629 12.843-9.337 2.305-7.094-1.577-14.713-8.671-17.018z"/></symbol><symbol viewBox="0 0 24 24" id="credit-card" xmlns="http://www.w3.org/2000/svg"><path d="M22 4H2a2 2 0 0 0-2 2v12a2 2 0 0 0 2 2h20a2 2 0 0 0 2-2V6a2 2 0 0 0-2-2zm0 13.5a.5.5 0 0 1-.5.5h-19a.5.5 0 0 1-.5-.5V11h20v6.5zM22 8H2V6.5a.5.5 0 0 1 .5-.5h19a.5.5 0 0 1 .5.5V8zm-9 6H4v-1h9v1zm-3 2H4v-1h6v1zm10-2h-3v-1h3v1z"/></symbol><symbol fill-rule="evenodd" clip-rule="evenodd" viewBox="0 0 24 24" id="delivery" xmlns="http://www.w3.org/2000/svg"><path d="M3 18H1a1 1 0 0 1-1-1v-2h15V6h4.667c1.117 0 1.6.576 1.936 1.107.594.94 1.536 2.432 2.109 3.378.188.312.288.67.288 1.035V16c0 1.121-.728 2-2 2h-1a3.001 3.001 0 0 1-6 0H9a3.001 3.001 0 0 1-6 0zm3-1.2a1.201 1.201 0 0 1 0 2.4 1.201 1.201 0 0 1 0-2.4zm12 0a1.201 1.201 0 0 1 0 2.4 1.201 1.201 0 0 1 0-2.4zM14 14H0V4a1 1 0 0 1 1-1h12a1 1 0 0 1 1 1v10zm3-6v3h4.715l-1.427-2.496A.999.999 0 0 0 19.42 8H17z"/></symbol><symbol viewBox="0 0 512 512" id="delivery-truck" xmlns="http://www.w3.org/2000/svg"><path d="M458.671 214.24v-11.571c0-17.645-14.354-32-32-32H320v-53.337c0-5.891-4.775-10.667-10.667-10.667h-32.001V74.67c0-5.891-4.776-10.667-10.667-10.667H121.759L103.545 45.79c-4.164-4.165-10.918-4.165-15.084 0l-60.878 60.875H10.667C4.776 106.666 0 111.441 0 117.332V416c0 5.89 4.776 10.667 10.667 10.667h43.739A53.103 53.103 0 0 0 64.028 448H42.666C36.775 448 32 452.777 32 458.667s4.775 10.667 10.667 10.667h63.997c.027 0 .052-.004.079-.004 25.72-.037 47.231-18.373 52.181-42.662H353.08a53.104 53.104 0 0 0 9.623 21.333H341.34c-5.89 0-10.667 4.776-10.667 10.667s4.776 10.667 10.667 10.667h63.997c.027 0 .053-.004.08-.004 25.72-.037 47.231-18.373 52.181-42.662h43.735c5.891 0 10.667-4.776 10.667-10.667v-138.67c0-31.653-23.104-57.996-53.329-63.092zM255.999 85.337v21.329h-91.576l-21.33-21.329h112.906zM96.003 68.417l13.788 13.787.016.016 24.446 24.446H57.754l38.249-38.249zm10.663 379.581c-17.646 0-32.001-14.354-32.001-31.998 0-17.646 14.355-32.002 32.001-32.002 17.644 0 31.998 14.356 31.998 32.002-.001 17.644-14.355 31.998-31.998 31.998zm192-266.662v181.332h-72.543c-5.891 0-10.667 4.776-10.667 10.667s4.775 10.667 10.667 10.667h72.543v21.333H158.924c-4.955-24.316-26.503-42.668-52.258-42.668-25.755 0-47.306 18.353-52.261 42.668H21.333V234.668h42.665c5.89 0 10.667-4.775 10.667-10.667 0-5.891-4.776-10.667-10.667-10.667H21.333v-21.332H149.33c5.891 0 10.667-4.775 10.667-10.667 0-5.891-4.775-10.667-10.667-10.667H21.333v-42.671h277.333v53.339zm54.414 223.998H320v-21.333h42.701a53.08 53.08 0 0 0-9.621 21.333zm84.257 10.701c-.019 17.629-14.366 31.963-31.998 31.963-17.645 0-32.001-14.354-32.001-31.998 0-17.619 14.311-31.955 31.919-32h.08l.028-.001c17.621.014 31.953 14.346 31.972 31.967l-.001.034.001.035zm53.33-10.701h-33.069c-4.956-24.316-26.504-42.668-52.259-42.668l-.082.002h-85.258V192.003h106.672c5.882 0 10.667 4.785 10.667 10.667v10.666h-74.666c-5.89 0-10.667 4.775-10.667 10.667v95.998c0 5.891 4.776 10.667 10.667 10.667h127.995v74.666zm-95.994-170.666v74.665h-21.334v-74.665h21.334zm95.994 74.665h-74.661v-74.665h31.999c23.524 0 42.662 19.138 42.662 42.663v32.002z"/><path d="M184.397 384.001h6.658c5.89 0 10.667-4.776 10.667-10.667s-4.776-10.667-10.667-10.667h-6.658c-5.891 0-10.667 4.776-10.667 10.667s4.777 10.667 10.667 10.667zm0-191.998h6.658c5.89 0 10.667-4.775 10.667-10.667 0-5.891-4.776-10.667-10.667-10.667h-6.658c-5.891 0-10.667 4.775-10.667 10.667.001 5.891 4.777 10.667 10.667 10.667z"/></symbol><symbol viewBox="0 0 148.602 148.602" id="diameter" xmlns="http://www.w3.org/2000/svg"><path d="M74.301 0C33.333 0 0 33.333 0 74.301c0 40.969 33.333 74.301 74.301 74.301 40.969 0 74.301-33.332 74.301-74.301C148.602 33.333 115.27 0 74.301 0zm58.467 77.954h3.537c-1.897 32.56-28.978 58.468-62.004 58.468-34.254 0-62.121-27.867-62.121-62.121 0-34.253 27.867-62.12 62.121-62.12 33.846 0 61.436 27.211 62.09 60.902h-3.623c-1.348 0-2.437 1.089-2.437 2.437s1.089 2.434 2.437 2.434z"/><path d="M110.842 73.083h-7.308c-1.349 0-2.437 1.089-2.437 2.437s1.088 2.436 2.437 2.436h7.308a2.438 2.438 0 0 0 0-4.873zm-14.615 0h-7.309c-1.348 0-2.438 1.089-2.438 2.437s1.09 2.436 2.438 2.436h7.309a2.438 2.438 0 0 0 0-4.873zm29.232 0h-7.309c-1.349 0-2.437 1.089-2.437 2.437s1.088 2.436 2.437 2.436h7.309c1.348 0 2.436-1.088 2.436-2.436s-1.088-2.437-2.436-2.437zm-43.85 0H74.3c-1.347 0-2.436 1.089-2.436 2.437s1.089 2.436 2.436 2.436h7.31c1.347 0 2.436-1.088 2.436-2.436s-1.09-2.437-2.437-2.437z"/></symbol><symbol viewBox="0 0 129 129" id="down-arrow" xmlns="http://www.w3.org/2000/svg"><path d="M121.3 34.6c-1.6-1.6-4.2-1.6-5.8 0l-51 51.1-51.1-51.1c-1.6-1.6-4.2-1.6-5.8 0-1.6 1.6-1.6 4.2 0 5.8l53.9 53.9c.8.8 1.8 1.2 2.9 1.2 1 0 2.1-.4 2.9-1.2l53.9-53.9c1.7-1.6 1.7-4.2.1-5.8z"/></symbol><symbol viewBox="0 0 24 24" id="eye" xmlns="http://www.w3.org/2000/svg"><path d="M15 12c0 1.654-1.346 3-3 3s-3-1.346-3-3 1.346-3 3-3 3 1.346 3 3zm9-.449S19.748 20 12.015 20C4.835 20 0 11.551 0 11.551S4.446 4 12.015 4C19.709 4 24 11.551 24 11.551zM17 12c0-2.757-2.243-5-5-5s-5 2.243-5 5 2.243 5 5 5 5-2.243 5-5z"/></symbol><symbol viewBox="0 0 24 24" id="favorite" xmlns="http://www.w3.org/2000/svg"><path d="M17.516 3c2.382 0 4.487 1.564 4.487 4.712 0 4.963-6.528 8.297-10.003 11.935C8.525 16.009 1.998 12.676 1.998 7.713 1.998 4.658 4.006 3 6.485 3 9.665 3 11.331 6.644 12 8.312 12.667 6.646 14.333 3 17.516 3zm0-2C15.342 1 13.17 2.062 12 4.419 10.83 2.062 8.658 1 6.485 1 3.082 1 .001 3.39.001 7.689.001 14.959 9.904 18.627 12 23c2.096-4.373 12-8.041 12-15.311C24 3.103 20.586 1 17.516 1z"/></symbol><symbol viewBox="0 0 295.238 295.238" id="idea" xmlns="http://www.w3.org/2000/svg"><path d="M277.462.09l-27.681 20.72-27.838 64.905h-22.386l-8.79-19.048h5.743c10.505 0 19.048-8.452 19.048-18.957V28.571h9.524V0H196.51v28.571h9.524V47.71c0 5.248-4.271 9.433-9.524 9.433h-10.138L174.2 30.81l14.581-7.267-47.743-20.448-11.224 39.281C129.509 19.005 110.428.086 86.985.086c-23.633 0-42.857 19.224-42.857 42.857 0 14.281 7.233 27.676 19.048 35.595v7.176H51.643l-.743 3.905c-2.314 12.005-2.529 24.343-.638 36.648l-32.486 57.905 35.876 8.195v60.014h47.619v42.857h114.286v-66.357c33.333-23.581 52.371-61.495 52.343-101.943l.01-17.371c0-6.548-.605-13.276-1.824-19.905l-.705-3.948h-9.348l21.429-51.338V.09zm-71.429 19.048V9.614h9.524v9.524h-9.524zm-16.966 66.576h-18.062l-8.657-19.048h17.929l8.79 19.048zm-41.848-69.595l18.929 8.11-4.467 2.19 14.2 30.724h-17.862l-11.605-25.471-4.262 2.152 5.067-17.705zm13.324 69.596h-21.176v-9.433c0-5.252 4.271-9.614 9.524-9.614h2.995v-.001l8.657 19.048zm-18.7-41.063l5.776 12.71c-9.905.667-17.776 8.848-17.776 18.919v9.433h-19.048v-7.176c9.529-6.386 15.995-16.352 18.176-27.452l12.872-6.434zm-88.19-1.704c0-18.376 14.957-33.333 33.333-33.333 18.376 0 33.333 14.957 33.333 33.333 0 11.829-6.39 22.881-16.671 28.838l-2.376 1.371v12.557h-9.524V56.352c5.529-1.971 9.524-7.21 9.524-13.41 0-7.876-6.41-14.286-14.286-14.286-7.876 0-14.286 6.411-14.286 14.287 0 6.2 3.995 11.438 9.524 13.41v29.362H72.7V73.157l-2.376-1.376c-10.281-5.957-16.671-17.005-16.671-28.833zm33.333 4.762a4.767 4.767 0 0 1-4.762-4.762 4.763 4.763 0 0 1 4.762-4.762c2.629 0 4.762 2.133 4.762 4.762s-2.133 4.762-4.762 4.762zm170.38 47.529c.691 4.761 1.039 9.59 1.039 14.285l.01 17.405c.029 38.148-18.795 73.871-50.286 95.552l-2.095 1.429v61.805h-95.238v-42.857h-47.62v-58.086l-30.862-7.043 27.876-49.7-.271-1.7c-1.771-10.419-1.871-21.567-.333-31.09h197.78zm-11.652-9.525H232.3l23.738-55.343 10.557 5.257-20.881 50.086zm22.224-60l-5.267-2.633 5.267-3.943v6.576z"/><path d="M96.51 123.81c-7.876 0-14.286-4.762-14.286-14.286H72.7c0 14.286 10.681 23.81 23.81 23.81s23.81-9.524 23.81-23.81h-9.524c-.001 9.524-6.41 14.286-14.286 14.286z"/></symbol><symbol viewBox="0 0 24 24" id="magnifier" xmlns="http://www.w3.org/2000/svg"><path d="M21.172 24l-7.387-7.387A8.945 8.945 0 0 1 9 18c-4.971 0-9-4.029-9-9s4.029-9 9-9 9 4.029 9 9a8.951 8.951 0 0 1-1.387 4.785L24 21.172 21.172 24zM9 16c3.859 0 7-3.14 7-7s-3.141-7-7-7-7 3.14-7 7 3.141 7 7 7z"/></symbol><symbol viewBox="0 0 24 24" id="mark" xmlns="http://www.w3.org/2000/svg"><path d="M12 2c5.514 0 10 4.486 10 10s-4.486 10-10 10S2 17.514 2 12 6.486 2 12 2zm0-2C5.373 0 0 5.373 0 12s5.373 12 12 12 12-5.373 12-12S18.627 0 12 0zm6.25 8.891l-1.421-1.409-6.105 6.218-3.078-2.937-1.396 1.436 4.5 4.319 7.5-7.627z"/></symbol><symbol viewBox="0 0 512 512" id="natural" xmlns="http://www.w3.org/2000/svg"><path d="M196 181c-24.813 0-45 20.187-45 45 0 8.284 6.716 15 15 15s15-6.716 15-15c0-8.271 6.729-15 15-15s15 6.729 15 15c0 8.284 6.716 15 15 15s15-6.716 15-15c0-24.813-20.187-45-45-45zm120 0c-24.813 0-45 20.187-45 45 0 8.284 6.716 15 15 15s15-6.716 15-15c0-8.271 6.729-15 15-15s15 6.729 15 15c0 8.284 6.716 15 15 15s15-6.716 15-15c0-24.813-20.187-45-45-45zm0 90c-8.284 0-15 6.716-15 15 0 24.813-20.187 45-45 45s-45-20.187-45-45c0-8.284-6.716-15-15-15s-15 6.716-15 15c0 41.355 33.645 75 75 75s75-33.645 75-75c0-8.284-6.716-15-15-15z"/><path d="M256 91c-90.981 0-165 74.019-165 165s74.019 165 165 165 165-74.019 165-165S346.981 91 256 91zm0 300c-74.439 0-135-60.561-135-135s60.561-135 135-135 135 60.561 135 135-60.561 135-135 135zm0-391c-8.284 0-15 6.716-15 15v31c0 8.284 6.716 15 15 15s15-6.716 15-15V15c0-8.284-6.716-15-15-15zm0 451c-8.284 0-15 6.716-15 15v31c0 8.284 6.716 15 15 15s15-6.716 15-15v-31c0-8.284-6.716-15-15-15zM46 241H15c-8.284 0-15 6.716-15 15s6.716 15 15 15h31c8.284 0 15-6.716 15-15s-6.716-15-15-15zm451 0h-31c-8.284 0-15 6.716-15 15s6.716 15 15 15h31c8.284 0 15-6.716 15-15s-6.716-15-15-15zM163.99 66.635l-15-25.981c-4.142-7.174-13.315-9.633-20.49-5.49-7.174 4.142-9.632 13.316-5.49 20.49l15 25.981c4.144 7.178 13.32 9.63 20.49 5.49 7.174-4.142 9.632-13.316 5.49-20.49zm225 389.711l-15-25.981c-4.141-7.174-13.315-9.632-20.49-5.49-7.174 4.142-9.632 13.316-5.49 20.49l15 25.981c4.144 7.178 13.32 9.63 20.49 5.49 7.174-4.142 9.632-13.316 5.49-20.49zM87.125 353.5c-4.142-7.174-13.316-9.633-20.49-5.49l-25.981 15c-7.174 4.142-9.632 13.316-5.49 20.49 4.144 7.178 13.32 9.63 20.49 5.49l25.981-15c7.174-4.142 9.632-13.316 5.49-20.49zm389.711-225c-4.142-7.174-13.316-9.633-20.49-5.49l-25.981 15c-7.174 4.142-9.632 13.316-5.49 20.49 4.144 7.178 13.32 9.63 20.49 5.49l25.981-15c7.174-4.142 9.632-13.316 5.49-20.49zm-395.201 9.51l-25.981-15c-7.175-4.145-16.349-1.684-20.49 5.49-4.142 7.174-1.684 16.348 5.49 20.49l25.981 15c7.171 4.141 16.348 1.686 20.49-5.49 4.142-7.174 1.684-16.348-5.49-20.49zm389.711 225l-25.981-15c-7.175-4.144-16.35-1.684-20.49 5.49-4.142 7.174-1.684 16.348 5.49 20.49l25.981 15c7.171 4.141 16.348 1.686 20.49-5.49 4.142-7.174 1.684-16.348-5.49-20.49zM158.5 424.875c-7.175-4.144-16.349-1.685-20.49 5.49l-15 25.981c-4.142 7.174-1.684 16.348 5.49 20.49 7.171 4.141 16.348 1.686 20.49-5.49l15-25.981c4.142-7.174 1.684-16.348-5.49-20.49zm225-389.711c-7.175-4.144-16.349-1.685-20.49 5.49l-15 25.981c-4.142 7.174-1.684 16.348 5.49 20.49 7.171 4.141 16.348 1.686 20.49-5.49l15-25.981c4.142-7.174 1.684-16.348-5.49-20.49z"/></symbol><symbol viewBox="0 0 60 60" id="play" xmlns="http://www.w3.org/2000/svg"><path d="M30 0C13.458 0 0 13.458 0 30s13.458 30 30 30 30-13.458 30-30S46.542 0 30 0zm15.563 30.826l-22 15a1.002 1.002 0 0 1-1.03.058A.999.999 0 0 1 22 45V15a.999.999 0 0 1 1.564-.826l22 15a1.001 1.001 0 0 1-.001 1.652z"/></symbol><symbol viewBox="0 0 58 58" id="quality" xmlns="http://www.w3.org/2000/svg"><path d="M9.5 43c-2.757 0-5 2.243-5 5s2.243 5 5 5 5-2.243 5-5-2.243-5-5-5zm0 8c-1.654 0-3-1.346-3-3s1.346-3 3-3 3 1.346 3 3-1.346 3-3 3z"/><path d="M56.5 35c0-2.495-1.375-3.662-2.715-4.233A4.992 4.992 0 0 0 55.5 27c0-2.757-2.243-5-5-5H36.134l.729-3.41c.973-4.549.334-9.716.116-11.191C36.461 3.906 33.372 0 30.013 0h-.239C28.178 0 25.5.909 25.5 7c0 8.023-2.002 11.694-3.681 13.36-1.647 1.634-3.231 1.616-3.319 1.64h-1v-2h-16v38h16v-2h28c2.757 0 5-2.243 5-5a4.98 4.98 0 0 0-1.069-3.087A5.008 5.008 0 0 0 53.5 43a4.98 4.98 0 0 0-1.069-3.087A5.008 5.008 0 0 0 56.5 35zm-53 21V22h12v34h-12zm48-18h-11a1 1 0 1 0 0 2h8c1.654 0 3 1.346 3 3s-1.346 3-3 3h-10a1 1 0 1 0 0 2h7c1.654 0 3 1.346 3 3s-1.346 3-3 3h-28V24l.969-.001c.097.019 2.42.05 4.682-2.144C26.037 19.059 27.5 14.061 27.5 7c0-1.867.295-5 2.274-5h.239C32.244 2 34.621 5.13 35 7.691c.207 1.392.81 6.26-.093 10.48L33.662 24H50.5c1.654 0 3 1.346 3 3s-1.346 3-3 3h-10a1 1 0 1 0 0 2h7c.883 0 2.825.04 3.854.193C53.965 32.58 54.5 33.595 54.5 35c0 1.654-1.346 3-3 3z"/></symbol><symbol viewBox="0 0 453.487 453.487" id="quality-badge" xmlns="http://www.w3.org/2000/svg"><path d="M390.523 159.76l-24.017-31.377 5.13-39.185a9.998 9.998 0 0 0-6.09-10.537l-36.51-15.116-15.115-36.51a9.998 9.998 0 0 0-10.537-6.09l-39.186 5.13-31.376-24.016a10.001 10.001 0 0 0-12.156 0l-31.377 24.017-39.185-5.13a10.002 10.002 0 0 0-10.537 6.09l-15.116 36.51-36.51 15.115a10 10 0 0 0-6.09 10.538l5.13 39.186-24.017 31.375a9.998 9.998 0 0 0 0 12.156l24.017 31.377-5.13 39.185a9.998 9.998 0 0 0 6.09 10.537l36.51 15.115 15.115 36.511a9.987 9.987 0 0 0 7.554 6.026v132.819a10 10 0 0 0 15.357 8.445l64.268-40.764 64.268 40.764a9.993 9.993 0 0 0 10.174.319 10.002 10.002 0 0 0 5.182-8.763V310.666a10.005 10.005 0 0 0 7.553-6.024l15.116-36.51 36.51-15.115a10 10 0 0 0 6.09-10.538l-5.13-39.186 24.017-31.377a10.001 10.001 0 0 0-.002-12.156zM232.1 390.882a10 10 0 0 0-10.713 0l-54.268 34.421V308.504l22.169-2.902 31.377 24.017c1.794 1.373 3.936 2.059 6.078 2.059s4.284-.687 6.078-2.059l31.377-24.017 22.169 2.903v116.798L232.1 390.882zm116.015-196.464a10.002 10.002 0 0 0-1.975 7.376l4.67 35.677-33.253 13.767a10 10 0 0 0-5.414 5.414l-13.768 33.253-35.677-4.671a10.008 10.008 0 0 0-7.376 1.975l-28.579 21.875-28.579-21.875a9.998 9.998 0 0 0-7.376-1.975l-35.678 4.671-13.767-33.254a10.005 10.005 0 0 0-5.414-5.415l-33.253-13.767 4.67-35.676a9.993 9.993 0 0 0-1.975-7.376l-21.875-28.58 21.875-28.579a10.002 10.002 0 0 0 1.975-7.376l-4.67-35.677L135.93 80.44a10 10 0 0 0 5.414-5.414l13.768-33.253 35.677 4.671a9.996 9.996 0 0 0 7.376-1.975l28.579-21.875 28.579 21.875a10 10 0 0 0 7.376 1.975l35.678-4.671 13.767 33.253a9.997 9.997 0 0 0 5.414 5.414l33.253 13.768-4.67 35.676a9.993 9.993 0 0 0 1.975 7.376l21.875 28.579-21.876 28.579z"/><path d="M165.661 101.322A9.96 9.96 0 0 0 172 99.051c15.373-12.618 34.814-19.567 54.744-19.567 5.522 0 10-4.477 10-10s-4.478-10-10-10c-24.544 0-48.492 8.562-67.434 24.107-4.269 3.504-4.889 9.805-1.385 14.074a9.978 9.978 0 0 0 7.736 3.657z"/><path d="M262.403 65.613c-5.204-1.85-10.922.867-12.774 6.069-1.851 5.203.866 10.922 6.069 12.773 34.333 12.215 57.4 44.921 57.4 81.383 0 47.616-38.738 86.354-86.354 86.354s-86.354-38.738-86.354-86.354c0-16.938 4.899-33.333 14.168-47.414 3.037-4.613 1.759-10.814-2.854-13.851-4.612-3.036-10.814-1.76-13.851 2.854-11.425 17.355-17.463 37.553-17.463 58.411 0 58.644 47.71 106.354 106.354 106.354s106.354-47.71 106.354-106.354c0-44.902-28.41-85.18-70.695-100.225z"/></symbol><symbol viewBox="0 0 24 24" id="search" xmlns="http://www.w3.org/2000/svg"><path d="M12 2c3.196 0 6 2.618 6 5.602 0 3.093-2.493 7.132-6 12.661-3.507-5.529-6-9.568-6-12.661C6 4.618 8.804 2 12 2m0-2C7.802 0 4 3.403 4 7.602 4 11.8 7.469 16.812 12 24c4.531-7.188 8-12.2 8-16.398C20 3.403 16.199 0 12 0zm0 11a3 3 0 1 1 0-6 3 3 0 0 1 0 6z"/></symbol><symbol viewBox="0 0 24 24" id="user" xmlns="http://www.w3.org/2000/svg"><path d="M23.995 24H22c0-3.104.119-3.55-1.761-3.986-2.877-.664-5.594-1.291-6.584-3.458-.361-.791-.601-2.095.31-3.814 2.042-3.857 2.554-7.165 1.403-9.076-1.341-2.229-5.413-2.241-6.766.034-1.154 1.937-.635 5.227 1.424 9.025.93 1.712.697 3.02.338 3.815-.982 2.178-3.675 2.799-6.525 3.456C1.875 20.45 2 20.866 2 24H.005L0 22.759c0-2.52.199-3.975 3.178-4.663 3.365-.777 6.688-1.473 5.09-4.418C3.535 4.949 6.918 0 12 0c4.983 0 8.451 4.766 3.732 13.678-1.551 2.928 1.65 3.624 5.09 4.418 2.979.688 3.178 2.143 3.178 4.663L23.995 24zm-13.478-6l.91 2h1.164l.92-2h-2.994zm2.995 6l-.704-3h-1.615l-.704 3h3.023z"/></symbol></svg>