<?xml version="1.0" encoding="utf-8"?><svg xmlns="http://www.w3.org/2000/svg" xmlns:xlink="http://www.w3.org/1999/xlink"><symbol viewBox="0 0 49.771 49.771" id="amount" xmlns="http://www.w3.org/2000/svg"><path d="M47.349 5.524l-.058-.13c-.008-.018-.021-.033-.03-.051a2.383 2.383 0 0 0-.209-.359c-.037-.052-.085-.097-.126-.147-.062-.073-.122-.148-.194-.215-.05-.047-.109-.089-.164-.133a3.015 3.015 0 0 0-.243-.182c-.054-.034-.113-.065-.17-.097-.072-.041-.138-.086-.216-.123l-.005.01c-.754-.357-1.765-.544-3.043-.544-2.84 0-7.001.883-11.74 2.479-.272-.126-.542-.253-.817-.377C22.59 2.168 15.004 0 10.537 0a12 12 0 0 0-.847.029C7.81.164 6.616.772 6.134 1.841l-.001.004-.001.002-.052.115c-2.65 5.881-2.724 12.542-.402 18.416-.554.639-.97 1.243-1.249 1.812C1.733 23.234.351 24.515.351 26.008v.132c0 13.03 10.601 23.631 23.63 23.631 13.03 0 23.631-10.601 23.631-23.631v-.132c0-.373-.098-.736-.274-1.09 2.739-6.105 2.807-13.189.011-19.394zM29.908 30.275a88.988 88.988 0 0 1-7.885.175c-.154-.003-.304-.01-.457-.013-.5-.013-.999-.028-1.493-.049-.161-.007-.32-.016-.48-.024a79.55 79.55 0 0 1-1.421-.079c-.17-.011-.337-.024-.506-.036a76.404 76.404 0 0 1-1.33-.105c-.185-.016-.368-.034-.55-.051a80.978 80.978 0 0 1-1.816-.196 59.906 59.906 0 0 1-2.667-.384c-.219-.037-.44-.072-.655-.111-.305-.055-.599-.114-.893-.173-.169-.034-.343-.067-.508-.103-.33-.392-.644-.794-.944-1.205-.102-.139-.192-.285-.29-.427-.193-.279-.388-.556-.567-.843-.013-.02-.023-.041-.036-.061.37.041.768.061 1.196.061h.001c.605 0 1.271-.043 1.983-.12l.006.002.232-.027c.046-.005.098-.016.144-.021a29.58 29.58 0 0 0 1.588-.239c.101-.018.208-.041.311-.06.441-.083.895-.176 1.36-.28.184-.041.364-.079.551-.123a65.987 65.987 0 0 0 3.705-1.012 67.29 67.29 0 0 0 1.005-.319 73.157 73.157 0 0 0 3.616-1.268c.242-.092.484-.183.728-.277a93.687 93.687 0 0 0 1.92-.769l.489-.206a80.09 80.09 0 0 0 3.638-1.623c.33-.156.656-.313.982-.471l.006.002.388-.19c.164-.081.324-.163.487-.245.231-.115.461-.23.689-.346.385-.197.764-.394 1.141-.593.16-.085.323-.168.482-.253a79.375 79.375 0 0 0 1.606-.884l.122-.07a71.75 71.75 0 0 0 1.406-.82c.14-.083.275-.167.413-.251a68.59 68.59 0 0 0 1.047-.648c.154-.098.307-.195.458-.293.328-.211.646-.422.959-.634.135-.091.273-.182.405-.273.43-.296.849-.591 1.248-.884l1.151-.848-.045-.03c1.561-1.237 2.851-2.47 3.672-3.635l.011.032c.021.069.037.14.057.209.103.357.2.715.284 1.075.034.146.062.294.093.44.061.286.119.571.168.858.029.167.052.336.076.504a22.184 22.184 0 0 1 .153 1.333c.022.268.039.536.051.805.008.173.016.346.02.519.006.276.004.552 0 .828-.003.164-.003.327-.009.49-.012.308-.034.615-.059.921-.011.129-.016.259-.029.388-.043.436-.098.871-.168 1.304-.007.044-.018.088-.025.132-.065.387-.139.774-.225 1.157-.032.142-.07.282-.105.424-.07.285-.141.569-.223.852-.047.163-.099.324-.15.486a21.18 21.18 0 0 1-.442 1.273c-.096.25-.196.498-.301.744-.07.163-.14.326-.213.488-.072.158-.151.313-.226.469-.222.458-.459.904-.708 1.339l-.1.177-.047.082c-.289.49-.591.967-.911 1.422-2.852 1.27-7.835 2.197-13.564 2.581zM6.931 5.385C9.827 9.5 18.439 14.474 25.025 17.441c1.087.49 2.182.95 3.276 1.394-.243.112-.472.224-.72.336-.694.313-1.383.61-2.07.9-.153.064-.306.13-.459.193-.637.265-1.27.519-1.898.763l-.552.212c-.57.217-1.136.427-1.694.626l-.492.173c-.544.19-1.081.369-1.611.54l-.486.157c-.603.189-1.195.367-1.775.53l-.309.086c-1.979.546-3.809.936-5.41 1.14a14.548 14.548 0 0 1-.867-.349c-.4-.568-.77-1.168-1.119-1.787-.039-.068-.079-.136-.117-.206a22.393 22.393 0 0 1-.963-1.967l-.017-.039a21.727 21.727 0 0 1-.811-14.758zM6.026 23.99a.543.543 0 0 1-.025-.248c.003-.039.017-.089.025-.134.014-.071.03-.143.058-.224.086-.252.24-.565.515-.959.011.021.024.041.035.063.237.462.49.917.759 1.365.045.071.085.147.13.22.114.186.237.367.357.551-1.169-.086-1.733-.375-1.852-.63h-.001l-.001-.004zM45.142 5.932c.043.023.085.046.127.075.019.014.034.028.051.042a.528.528 0 0 1 .143.164l.006.008c.318.729-1.132 2.682-4.406 5.199-.337-.218-.68-.435-1.03-.652l-.335-.206A77.025 77.025 0 0 0 35.913 8.4l-.019-.01a87.905 87.905 0 0 0-2.127-1.101c3.699-1.125 6.883-1.735 9.123-1.735 1.158.001 1.87.171 2.252.378zM4.091 24.505c.03.104.068.206.113.306h-.001l.004.008v.001l.05.11c.251.557.527 1.101.822 1.637.096.174.204.342.304.514.208.356.418.711.645 1.056.037.057.068.117.106.173l-.265-.088a15.97 15.97 0 0 1-.519-.183c-.113-.042-.232-.084-.337-.126a14.21 14.21 0 0 1-.882-.39 8.351 8.351 0 0 1-.621-.336 6.137 6.137 0 0 1-.323-.208c-.044-.031-.089-.062-.129-.092a3.598 3.598 0 0 1-.284-.232c-.024-.022-.043-.043-.065-.064a2.295 2.295 0 0 1-.164-.179c-.012-.015-.027-.031-.037-.046a1.08 1.08 0 0 1-.108-.18l-.015-.038a.429.429 0 0 1-.033-.141c-.001-.275.399-.843 1.739-1.502z"/></symbol><symbol viewBox="0 0 24 24" id="basket-1" xmlns="http://www.w3.org/2000/svg"><path d="M4.559 7L9.26 2.298a1.02 1.02 0 1 1 1.441 1.442L7.441 7H4.559zm12 0h2.883L14.74 2.298a1.02 1.02 0 1 0-1.441 1.442L16.559 7zm3.703 4l-.016.041L16.648 20H7.352l-3.597-8.961L3.739 11h16.523zM24 9H0v2h.643c.535 0 1.021.304 1.256.784L6 22h12l4.102-10.214A1.397 1.397 0 0 1 23.358 11H24V9zm-14 5a1 1 0 1 0-2 0v3a1 1 0 1 0 2 0v-3zm3 0a1 1 0 1 0-2 0v3a1 1 0 1 0 2 0v-3zm3 0a1 1 0 1 0-2 0v3a1 1 0 1 0 2 0v-3z"/></symbol><symbol viewBox="0 0 24 24" id="basket-2" xmlns="http://www.w3.org/2000/svg"><path d="M24 8v2h-.642c-.535 0-1.023.305-1.257.786L18 21H6L1.899 10.784A1.397 1.397 0 0 0 .643 10H0V8h3l4.352 11h9.296L21 8h3zm-14 4H8l4 4 4-4h-2s-.288-7.383-7-9c3.94 2.58 3 9 3 9z"/></symbol><symbol viewBox="0 0 512 512" id="best-brand" xmlns="http://www.w3.org/2000/svg"><path d="M472.208 201.712c9.271-9.037 12.544-22.3 8.544-34.613-4.001-12.313-14.445-21.118-27.257-22.979l-112.03-16.279a6.75 6.75 0 0 1-5.084-3.694L286.28 22.632c-5.729-11.61-17.331-18.822-30.278-18.822s-24.549 7.212-30.278 18.822l-50.101 101.516a6.756 6.756 0 0 1-5.085 3.694L58.51 144.12c-12.812 1.861-23.255 10.666-27.257 22.979-4.002 12.313-.728 25.576 8.544 34.613l81.065 79.019a6.755 6.755 0 0 1 1.942 5.978l-19.137 111.576c-2.188 12.761 2.958 25.414 13.432 33.024 10.474 7.612 24.102 8.595 35.56 2.572l100.201-52.679a6.751 6.751 0 0 1 6.286 0l100.202 52.679c4.984 2.62 10.377 3.915 15.744 3.914 6.97 0 13.896-2.184 19.813-6.487 10.474-7.611 15.621-20.265 13.432-33.024L389.2 286.708a6.758 6.758 0 0 1 1.942-5.978l81.066-79.018zm-109.629 89.564l19.137 111.578c.64 3.734-1.665 5.863-2.686 6.604-1.022.74-3.76 2.277-7.112.513l-100.202-52.679a33.76 33.76 0 0 0-31.424-.001l-100.201 52.678c-3.354 1.763-6.091.228-7.112-.513s-3.327-2.87-2.686-6.604l19.137-111.576a33.755 33.755 0 0 0-9.711-29.886l-81.065-79.019c-2.713-2.646-2.099-5.723-1.708-6.923.389-1.201 1.702-4.052 5.451-4.596l112.027-16.279a33.76 33.76 0 0 0 25.424-18.471l50.101-101.516c1.677-3.397 4.793-3.764 6.056-3.764 1.261 0 4.377.366 6.055 3.764v.001l50.101 101.516a33.754 33.754 0 0 0 25.422 18.471l112.029 16.279c3.749.544 5.061 3.395 5.451 4.596.39 1.201 1.005 4.279-1.709 6.923l-81.065 79.019a33.754 33.754 0 0 0-9.71 29.885zm51.204-268.651c-6.036-4.384-14.481-3.046-18.865 2.988l-14.337 19.732c-4.384 6.034-3.047 14.481 2.988 18.865a13.456 13.456 0 0 0 7.928 2.58c4.177 0 8.295-1.931 10.937-5.567l14.337-19.732c4.384-6.035 3.047-14.482-2.988-18.866zM131.36 45.265l-14.337-19.732c-4.383-6.032-12.829-7.37-18.865-2.988-6.034 4.384-7.372 12.831-2.988 18.865l14.337 19.732a13.485 13.485 0 0 0 10.939 5.569c2.753 0 5.531-.839 7.927-2.581 6.034-4.383 7.372-12.83 2.987-18.865zM49.552 306.829c-2.305-7.093-9.924-10.976-17.019-8.671l-23.197 7.538c-7.095 2.305-10.976 9.926-8.671 17.019 1.854 5.709 7.149 9.337 12.842 9.337 1.383 0 2.79-.215 4.177-.666l23.197-7.538c7.094-2.305 10.976-9.924 8.671-17.019zm206.453 149.957c-7.459 0-13.506 6.047-13.506 13.506v24.392c0 7.459 6.047 13.506 13.506 13.506 7.459 0 13.506-6.047 13.506-13.506v-24.392c0-7.46-6.046-13.506-13.506-13.506zm246.659-151.071l-23.197-7.538c-7.092-2.303-14.714 1.577-17.019 8.672-2.305 7.095 1.576 14.714 8.671 17.019l23.197 7.538a13.51 13.51 0 0 0 4.176.664c5.694 0 10.989-3.629 12.843-9.337 2.305-7.094-1.577-14.713-8.671-17.018z"/></symbol><symbol viewBox="0 0 24 24" id="credit-card" xmlns="http://www.w3.org/2000/svg"><path d="M22 4H2a2 2 0 0 0-2 2v12a2 2 0 0 0 2 2h20a2 2 0 0 0 2-2V6a2 2 0 0 0-2-2zm0 13.5a.5.5 0 0 1-.5.5h-19a.5.5 0 0 1-.5-.5V11h20v6.5zM22 8H2V6.5a.5.5 0 0 1 .5-.5h19a.5.5 0 0 1 .5.5V8zm-9 6H4v-1h9v1zm-3 2H4v-1h6v1zm10-2h-3v-1h3v1z"/></symbol><symbol fill-rule="evenodd" clip-rule="evenodd" viewBox="0 0 24 24" id="delivery" xmlns="http://www.w3.org/2000/svg"><path d="M3 18H1a1 1 0 0 1-1-1v-2h15V6h4.667c1.117 0 1.6.576 1.936 1.107.594.94 1.536 2.432 2.109 3.378.188.312.288.67.288 1.035V16c0 1.121-.728 2-2 2h-1a3.001 3.001 0 0 1-6 0H9a3.001 3.001 0 0 1-6 0zm3-1.2a1.201 1.201 0 0 1 0 2.4 1.201 1.201 0 0 1 0-2.4zm12 0a1.201 1.201 0 0 1 0 2.4 1.201 1.201 0 0 1 0-2.4zM14 14H0V4a1 1 0 0 1 1-1h12a1 1 0 0 1 1 1v10zm3-6v3h4.715l-1.427-2.496A.999.999 0 0 0 19.42 8H17z"/></symbol><symbol viewBox="0 0 512 512" id="delivery-truck" xmlns="http://www.w3.org/2000/svg"><path d="M458.671 214.24v-11.571c0-17.645-14.354-32-32-32H320v-53.337c0-5.891-4.775-10.667-10.667-10.667h-32.001V74.67c0-5.891-4.776-10.667-10.667-10.667H121.759L103.545 45.79c-4.164-4.165-10.918-4.165-15.084 0l-60.878 60.875H10.667C4.776 106.666 0 111.441 0 117.332V416c0 5.89 4.776 10.667 10.667 10.667h43.739A53.103 53.103 0 0 0 64.028 448H42.666C36.775 448 32 452.777 32 458.667s4.775 10.667 10.667 10.667h63.997c.027 0 .052-.004.079-.004 25.72-.037 47.231-18.373 52.181-42.662H353.08a53.104 53.104 0 0 0 9.623 21.333H341.34c-5.89 0-10.667 4.776-10.667 10.667s4.776 10.667 10.667 10.667h63.997c.027 0 .053-.004.08-.004 25.72-.037 47.231-18.373 52.181-42.662h43.735c5.891 0 10.667-4.776 10.667-10.667v-138.67c0-31.653-23.104-57.996-53.329-63.092zM255.999 85.337v21.329h-91.576l-21.33-21.329h112.906zM96.003 68.417l13.788 13.787.016.016 24.446 24.446H57.754l38.249-38.249zm10.663 379.581c-17.646 0-32.001-14.354-32.001-31.998 0-17.646 14.355-32.002 32.001-32.002 17.644 0 31.998 14.356 31.998 32.002-.001 17.644-14.355 31.998-31.998 31.998zm192-266.662v181.332h-72.543c-5.891 0-10.667 4.776-10.667 10.667s4.775 10.667 10.667 10.667h72.543v21.333H158.924c-4.955-24.316-26.503-42.668-52.258-42.668-25.755 0-47.306 18.353-52.261 42.668H21.333V234.668h42.665c5.89 0 10.667-4.775 10.667-10.667 0-5.891-4.776-10.667-10.667-10.667H21.333v-21.332H149.33c5.891 0 10.667-4.775 10.667-10.667 0-5.891-4.775-10.667-10.667-10.667H21.333v-42.671h277.333v53.339zm54.414 223.998H320v-21.333h42.701a53.08 53.08 0 0 0-9.621 21.333zm84.257 10.701c-.019 17.629-14.366 31.963-31.998 31.963-17.645 0-32.001-14.354-32.001-31.998 0-17.619 14.311-31.955 31.919-32h.08l.028-.001c17.621.014 31.953 14.346 31.972 31.967l-.001.034.001.035zm53.33-10.701h-33.069c-4.956-24.316-26.504-42.668-52.259-42.668l-.082.002h-85.258V192.003h106.672c5.882 0 10.667 4.785 10.667 10.667v10.666h-74.666c-5.89 0-10.667 4.775-10.667 10.667v95.998c0 5.891 4.776 10.667 10.667 10.667h127.995v74.666zm-95.994-170.666v74.665h-21.334v-74.665h21.334zm95.994 74.665h-74.661v-74.665h31.999c23.524 0 42.662 19.138 42.662 42.663v32.002z"/><path d="M184.397 384.001h6.658c5.89 0 10.667-4.776 10.667-10.667s-4.776-10.667-10.667-10.667h-6.658c-5.891 0-10.667 4.776-10.667 10.667s4.777 10.667 10.667 10.667zm0-191.998h6.658c5.89 0 10.667-4.775 10.667-10.667 0-5.891-4.776-10.667-10.667-10.667h-6.658c-5.891 0-10.667 4.775-10.667 10.667.001 5.891 4.777 10.667 10.667 10.667z"/></symbol><symbol viewBox="0 0 148.602 148.602" id="diameter" xmlns="http://www.w3.org/2000/svg"><path d="M74.301 0C33.333 0 0 33.333 0 74.301c0 40.969 33.333 74.301 74.301 74.301 40.969 0 74.301-33.332 74.301-74.301C148.602 33.333 115.27 0 74.301 0zm58.467 77.954h3.537c-1.897 32.56-28.978 58.468-62.004 58.468-34.254 0-62.121-27.867-62.121-62.121 0-34.253 27.867-62.12 62.121-62.12 33.846 0 61.436 27.211 62.09 60.902h-3.623c-1.348 0-2.437 1.089-2.437 2.437s1.089 2.434 2.437 2.434z"/><path d="M110.842 73.083h-7.308c-1.349 0-2.437 1.089-2.437 2.437s1.088 2.436 2.437 2.436h7.308a2.438 2.438 0 0 0 0-4.873zm-14.615 0h-7.309c-1.348 0-2.438 1.089-2.438 2.437s1.09 2.436 2.438 2.436h7.309a2.438 2.438 0 0 0 0-4.873zm29.232 0h-7.309c-1.349 0-2.437 1.089-2.437 2.437s1.088 2.436 2.437 2.436h7.309c1.348 0 2.436-1.088 2.436-2.436s-1.088-2.437-2.436-2.437zm-43.85 0H74.3c-1.347 0-2.436 1.089-2.436 2.437s1.089 2.436 2.436 2.436h7.31c1.347 0 2.436-1.088 2.436-2.436s-1.09-2.437-2.437-2.437z"/></symbol><symbol viewBox="0 0 129 129" id="down-arrow" xmlns="http://www.w3.org/2000/svg"><path d="M121.3 34.6c-1.6-1.6-4.2-1.6-5.8 0l-51 51.1-51.1-51.1c-1.6-1.6-4.2-1.6-5.8 0-1.6 1.6-1.6 4.2 0 5.8l53.9 53.9c.8.8 1.8 1.2 2.9 1.2 1 0 2.1-.4 2.9-1.2l53.9-53.9c1.7-1.6 1.7-4.2.1-5.8z"/></symbol><symbol viewBox="0 0 24 24" id="eye" xmlns="http://www.w3.org/2000/svg"><path d="M15 12c0 1.654-1.346 3-3 3s-3-1.346-3-3 1.346-3 3-3 3 1.346 3 3zm9-.449S19.748 20 12.015 20C4.835 20 0 11.551 0 11.551S4.446 4 12.015 4C19.709 4 24 11.551 24 11.551zM17 12c0-2.757-2.243-5-5-5s-5 2.243-5 5 2.243 5 5 5 5-2.243 5-5z"/></symbol><symbol viewBox="0 0 24 24" id="favorite" xmlns="http://www.w3.org/2000/svg"><path d="M17.516 3c2.382 0 4.487 1.564 4.487 4.712 0 4.963-6.528 8.297-10.003 11.935C8.525 16.009 1.998 12.676 1.998 7.713 1.998 4.658 4.006 3 6.485 3 9.665 3 11.331 6.644 12 8.312 12.667 6.646 14.333 3 17.516 3zm0-2C15.342 1 13.17 2.062 12 4.419 10.83 2.062 8.658 1 6.485 1 3.082 1 .001 3.39.001 7.689.001 14.959 9.904 18.627 12 23c2.096-4.373 12-8.041 12-15.311C24 3.103 20.586 1 17.516 1z"/></symbol><symbol viewBox="0 0 96.124 96.123" id="fb" xmlns="http://www.w3.org/2000/svg"><path d="M72.089.02L59.624 0C45.62 0 36.57 9.285 36.57 23.656v10.907H24.037a1.96 1.96 0 0 0-1.96 1.961v15.803a1.96 1.96 0 0 0 1.96 1.96H36.57v39.876a1.96 1.96 0 0 0 1.96 1.96h16.352a1.96 1.96 0 0 0 1.96-1.96V54.287h14.654a1.96 1.96 0 0 0 1.96-1.96l.006-15.803a1.963 1.963 0 0 0-1.961-1.961H56.842v-9.246c0-4.444 1.059-6.7 6.848-6.7l8.397-.003a1.96 1.96 0 0 0 1.959-1.96V1.98A1.96 1.96 0 0 0 72.089.02z"/></symbol><symbol viewBox="0 0 295.238 295.238" id="idea" xmlns="http://www.w3.org/2000/svg"><path d="M277.462.09l-27.681 20.72-27.838 64.905h-22.386l-8.79-19.048h5.743c10.505 0 19.048-8.452 19.048-18.957V28.571h9.524V0H196.51v28.571h9.524V47.71c0 5.248-4.271 9.433-9.524 9.433h-10.138L174.2 30.81l14.581-7.267-47.743-20.448-11.224 39.281C129.509 19.005 110.428.086 86.985.086c-23.633 0-42.857 19.224-42.857 42.857 0 14.281 7.233 27.676 19.048 35.595v7.176H51.643l-.743 3.905c-2.314 12.005-2.529 24.343-.638 36.648l-32.486 57.905 35.876 8.195v60.014h47.619v42.857h114.286v-66.357c33.333-23.581 52.371-61.495 52.343-101.943l.01-17.371c0-6.548-.605-13.276-1.824-19.905l-.705-3.948h-9.348l21.429-51.338V.09zm-71.429 19.048V9.614h9.524v9.524h-9.524zm-16.966 66.576h-18.062l-8.657-19.048h17.929l8.79 19.048zm-41.848-69.595l18.929 8.11-4.467 2.19 14.2 30.724h-17.862l-11.605-25.471-4.262 2.152 5.067-17.705zm13.324 69.596h-21.176v-9.433c0-5.252 4.271-9.614 9.524-9.614h2.995v-.001l8.657 19.048zm-18.7-41.063l5.776 12.71c-9.905.667-17.776 8.848-17.776 18.919v9.433h-19.048v-7.176c9.529-6.386 15.995-16.352 18.176-27.452l12.872-6.434zm-88.19-1.704c0-18.376 14.957-33.333 33.333-33.333 18.376 0 33.333 14.957 33.333 33.333 0 11.829-6.39 22.881-16.671 28.838l-2.376 1.371v12.557h-9.524V56.352c5.529-1.971 9.524-7.21 9.524-13.41 0-7.876-6.41-14.286-14.286-14.286-7.876 0-14.286 6.411-14.286 14.287 0 6.2 3.995 11.438 9.524 13.41v29.362H72.7V73.157l-2.376-1.376c-10.281-5.957-16.671-17.005-16.671-28.833zm33.333 4.762a4.767 4.767 0 0 1-4.762-4.762 4.763 4.763 0 0 1 4.762-4.762c2.629 0 4.762 2.133 4.762 4.762s-2.133 4.762-4.762 4.762zm170.38 47.529c.691 4.761 1.039 9.59 1.039 14.285l.01 17.405c.029 38.148-18.795 73.871-50.286 95.552l-2.095 1.429v61.805h-95.238v-42.857h-47.62v-58.086l-30.862-7.043 27.876-49.7-.271-1.7c-1.771-10.419-1.871-21.567-.333-31.09h197.78zm-11.652-9.525H232.3l23.738-55.343 10.557 5.257-20.881 50.086zm22.224-60l-5.267-2.633 5.267-3.943v6.576z"/><path d="M96.51 123.81c-7.876 0-14.286-4.762-14.286-14.286H72.7c0 14.286 10.681 23.81 23.81 23.81s23.81-9.524 23.81-23.81h-9.524c-.001 9.524-6.41 14.286-14.286 14.286z"/></symbol><symbol viewBox="0 0 97.395 97.395" id="inst" xmlns="http://www.w3.org/2000/svg"><path d="M12.501 0h72.393c6.875 0 12.5 5.09 12.5 12.5v72.395c0 7.41-5.625 12.5-12.5 12.5H12.501C5.624 97.395 0 92.305 0 84.895V12.5C0 5.09 5.624 0 12.501 0zm58.447 10.821a4.395 4.395 0 0 0-4.383 4.385v10.495a4.396 4.396 0 0 0 4.383 4.385h11.008a4.398 4.398 0 0 0 4.385-4.385V15.206a4.397 4.397 0 0 0-4.385-4.385H70.948zm15.439 30.367h-8.572a28.486 28.486 0 0 1 1.25 8.355c0 16.2-13.556 29.332-30.275 29.332-16.718 0-30.272-13.132-30.272-29.332 0-2.904.438-5.708 1.25-8.355h-8.945v41.141a3.884 3.884 0 0 0 3.872 3.872h67.822a3.883 3.883 0 0 0 3.872-3.872V41.188h-.002zM48.789 29.533c-10.802 0-19.56 8.485-19.56 18.953s8.758 18.953 19.56 18.953c10.803 0 19.562-8.485 19.562-18.953s-8.758-18.953-19.562-18.953z"/></symbol><symbol viewBox="0 0 24 24" id="magnifier" xmlns="http://www.w3.org/2000/svg"><path d="M21.172 24l-7.387-7.387A8.945 8.945 0 0 1 9 18c-4.971 0-9-4.029-9-9s4.029-9 9-9 9 4.029 9 9a8.951 8.951 0 0 1-1.387 4.785L24 21.172 21.172 24zM9 16c3.859 0 7-3.14 7-7s-3.141-7-7-7-7 3.14-7 7 3.141 7 7 7z"/></symbol><symbol viewBox="0 0 24 24" id="mark" xmlns="http://www.w3.org/2000/svg"><path d="M12 2c5.514 0 10 4.486 10 10s-4.486 10-10 10S2 17.514 2 12 6.486 2 12 2zm0-2C5.373 0 0 5.373 0 12s5.373 12 12 12 12-5.373 12-12S18.627 0 12 0zm6.25 8.891l-1.421-1.409-6.105 6.218-3.078-2.937-1.396 1.436 4.5 4.319 7.5-7.627z"/></symbol><symbol viewBox="0 0 50.406 50.407" id="money-1" xmlns="http://www.w3.org/2000/svg"><path d="M9.035 20.603a2.043 2.043 0 0 0-.75-.809 3.513 3.513 0 0 0-1.193-.438 9.75 9.75 0 0 0-1.621-.128l-2.867.002a.718.718 0 0 0-.66.524L.015 28.156c-.07.284.117.522.415.522h1.373a.703.703 0 0 0 .659-.522l.471-2.04a.703.703 0 0 1 .658-.521h.393c1.679-.002 2.979-.345 3.913-1.032.939-.688 1.402-1.597 1.402-2.723-.001-.493-.082-.907-.264-1.237zm-2.961 2.745c-.415.304-.992.456-1.736.456h-.336c-.299 0-.482-.236-.417-.524l.413-1.784c.058-.286.359-.523.654-.521l.45-.003c.525 0 .926.091 1.194.267.265.174.398.451.396.818.008.558-.205.987-.618 1.291zm18.874-1.097l-5.47 9.251c-.176.289-.565.522-.861.522l-1.422.002c-.295 0-.392-.235-.212-.523l1.216-2.118s.098-.123.011-.813c-.187-1.251-1.121-6.566-1.121-6.566-.067-.288.115-.524.411-.524l1.23-.002c.377 0 .68.248.748.538l.612 3.687.228.003c.191-.339 2.157-3.713 2.157-3.713.188-.285.568-.524.864-.524 0 0 1.321.004 1.646 0 .489-.011-.037.78-.037.78zm9.019-1.617a2.124 2.124 0 0 0-.756-.812 3.37 3.37 0 0 0-1.193-.438 9.44 9.44 0 0 0-1.615-.126l-2.871.002a.713.713 0 0 0-.655.522l-1.931 8.406c-.07.285.122.521.414.521l1.375-.002a.712.712 0 0 0 .66-.52l.465-2.041a.712.712 0 0 1 .66-.521h.393c1.681 0 2.984-.346 3.922-1.031.927-.693 1.396-1.6 1.396-2.727-.005-.491-.09-.906-.264-1.233zm-2.961 2.749c-.414.298-.992.45-1.732.45h-.342a.411.411 0 0 1-.42-.523l.416-1.781a.698.698 0 0 1 .656-.521l.445-.003c.528.003.924.09 1.194.266.269.176.396.452.399.818.003.558-.204.988-.616 1.294zm-15.351-1.579c-.518-.292-1.336-.438-2.454-.438-.553 0-1.104.043-1.661.129-.411.063-.451.075-.704.13-.522.114-.604.635-.604.635l-.168.691c-.095.441.159.424.265.387.228-.068.355-.138.821-.242.445-.101.914-.177 1.286-.172.549 0 .969.058 1.249.176.276.12.414.326.414.624l-.024.194-.198.122c-.779.049-1.342.121-2.025.22-.668.093-1.254.256-1.741.479-.523.23-.911.539-1.182.932-.262.395-.393.874-.393 1.436 0 .529.19.966.559 1.304.371.332.861.494 1.447.494.371-.002.658-.031.862-.08l.665-.229.563-.312.518-.342.007.01-.052.22-.003.009v.002c-.056.268.106.488.367.514l.005.006h1.275l.018-.008a.71.71 0 0 0 .591-.514l1.001-4.333.052-.353.024-.331c.004-.614-.261-1.069-.78-1.36zm-2.214 4.872l-.214.282-.54.279a1.923 1.923 0 0 1-.718.155c-.338 0-.603-.049-.782-.149l-.265-.515c0-.279.064-.5.201-.67l.582-.396c.249-.084.553-.155.905-.204.314-.039.934-.11 1.015-.112l.095.167c-.018.095-.194.831-.279 1.163zm34.282-7.915h.459v.189h-.459v.611l.002.165.033.11.072.07.141.022.115-.016.086-.026h.012v.201l-.139.027-.131.011-.312-.112-.106-.352v-.711h-.154v-.189h.154v-.381h.227v.381zm-7.131 3.049c-.521-.292-1.338-.439-2.453-.439-.553 0-1.105.043-1.66.132-.412.06-.453.073-.707.127-.521.113-.602.636-.602.636l-.168.69c-.094.441.154.421.27.387.229-.068.352-.135.814-.243.443-.1.916-.174 1.289-.172.547 0 .967.059 1.246.177.278.12.414.328.414.623l-.021.193-.196.125c-.787.047-1.351.119-2.027.218-.666.093-1.254.255-1.742.479-.521.231-.914.54-1.182.934-.265.395-.394.873-.394 1.43 0 .533.188.97.562 1.306.373.331.858.497 1.444.497.369-.004.656-.028.861-.081l.663-.226.568-.312.514-.346.009.011-.047.222-.005.004.002.004c-.062.268.101.49.365.514l.002.005h1.274l.021-.007a.703.703 0 0 0 .584-.518l1.004-4.327.053-.355.029-.332c.001-.612-.261-1.065-.784-1.356zm-2.209 4.872l-.223.285-.535.277a1.945 1.945 0 0 1-.715.155c-.349 0-.607-.05-.781-.15l-.268-.513c0-.28.065-.499.196-.672.133-.163.336-.297.588-.395a5.1 5.1 0 0 1 .904-.203c.312-.039.93-.112 1.01-.113l.097.167c-.014.095-.191.828-.273 1.162zm7.357-6.833l.004.001-1.838 8.331-.066.1c-.107.234-.342.424-.592.424h-1.277l-.021-.029c-.244-.037-.402-.231-.345-.488l-.002-.006.056-.24 1.719-7.814.062-.272.068-.106c.111-.23.338-.417.59-.417h1.23c.295-.004.475.229.412.516zm4.561-.991l.105.373v.867h-.224v-.763l-.015-.163-.028-.129-.08-.077-.147-.027-.188.047-.19.121.004.065.004.071v.854h-.223v-.763l-.011-.165-.033-.128-.075-.077-.152-.027-.186.046-.187.116v.997h-.222v-1.335h.223v.148l.211-.136.223-.049.232.055.143.159.246-.166.242-.049.328.135z"/></symbol><symbol viewBox="0 0 49.076 49.076" id="money-2" xmlns="http://www.w3.org/2000/svg"><path d="M5.205 24.78H1.584c-.05 1.029-.074 2.041-.156 3.051-.073.896-.271 1.775-.667 2.621-.131.279-.288.463-.688.396-.021-.004-.047.012-.073.022v2.224h1.081v-1.468h3.915v1.472h1.05v-2.257h-.841V24.78zm-1.173 6.053h-2.37c.202-.506.449-1.004.599-1.521.301-1.039.299-2.105.307-3.168.002-.164 0-.33 0-.51h1.465l-.001 5.199zm7.801-12.752H9.79c0 .254.009.482-.001.711-.034.796-.063 1.593-.395 2.355-.082.188-.143.389-.46.347v1.23h.589v-.799h2.213v.795h.557v-1.232l-.46-.018v-3.389zm-.645 3.389H9.812c.597-.924.516-1.917.559-2.908h.817v2.908zm-.852 9.515c-1.059.217-1.751-.076-2.053-.844-.233-.59-.224-1.199-.234-1.842h3.456c-.048-.535-.053-1.057-.15-1.562-.123-.633-.367-1.24-.872-1.75-.447-.451-.985-.582-1.656-.4-.697.189-1.122.627-1.408 1.146-.838 1.523-.91 3.092-.268 4.674.193.478.52.894 1.064 1.16.912.449 2.387.293 3.312-.354l-.213-.522c-.343.106-.652.227-.978.294zm-1.765-5.188c.163-.229.38-.416.744-.399.356.019.567.205.71.447.316.543.369 1.125.366 1.729H8.016c.06-.64.172-1.238.555-1.777zm5.864-3.689a3.81 3.81 0 0 0 .844-.205c.301-.104.309-.2.101-.422-.183.053-.359.117-.543.154-.513.104-.879-.01-1.074-.333-.229-.378-.218-.784-.204-1.209h1.935c.042-.636-.036-1.232-.439-1.774-.354-.476-.967-.552-1.454-.161a1.851 1.851 0 0 0-.445.523 2.675 2.675 0 0 0-.346 1.677c.045.359.144.724.297 1.062.222.497.735.751 1.328.688zm-.555-3.493c.218-.271.578-.263.771.021.216.315.242.663.233 1.028h-1.348c.021-.382.094-.736.344-1.049zm5.173 3.292c-.225 0-.412.015-.594-.008-.068-.009-.14-.094-.182-.157-.322-.476-.637-.955-.956-1.434a.618.618 0 0 0-.215-.206c-.04.152-.11.304-.116.456-.016.442-.006.886-.006 1.339h-.62v-3.815h.611v1.68c.096-.093.146-.134.186-.181.352-.419.717-.831 1.046-1.263.149-.196.316-.285.59-.248.067.009.138.001.259.001-.064.084-.104.142-.15.197-.375.449-.744.902-1.13 1.346-.104.119-.098.206-.017.326.427.641.845 1.285 1.294 1.967zM7.615 20.239H6.448v1.75h-.637v-3.908h.618v1.584h1.182v-1.579h.633v3.905h-.629v-1.752zm9.544 4.668c.017.019.003.055.003.084v6.484c0 .062-.008.127-.013.203h-1.122v-3.127h-1.534c-.53 0-.53 0-.53.443v2.682h-1.118v-6.901h1.104v2.821h2.07V24.77c.353 0 .673-.005.992.008.053.002.106.079.148.129zm15.304-.151c.346.015.692.005 1.055.005v6.919h-1.262v-4.539c-.703 1.525-1.4 3.037-2.097 4.543h-1.097v-6.911h1.117v4.259l.053.008c.195-.416.395-.832.588-1.248.441-.951.885-1.9 1.318-2.854.064-.137.145-.188.325-.182zM1.759 21.998c.212.019.321-.05.419-.207.374-.607.771-1.205 1.159-1.807.179-.276.201-.284.623-.203v2.195h.716v-5.7c0-.297-.001-.296-.371-.297-.341 0-.68.001-1.02 0a1.741 1.741 0 0 0-1.205.437c-1.123.994-.828 2.882.666 3.285l-1.524 2.294c.213 0 .377-.011.537.003zm.815-3.096c-.425-.417-.546-.899-.389-1.428.013-.042.034-.082.051-.122.316-.727.733-.929 1.704-.808v2.607c-.487-.005-.995.116-1.366-.249zm17.17 2.516c-.38-.505-.451-1.063-.398-1.638.047-.501.192-.978.563-1.39.48-.534 1.363-.635 2.007-.212l-.245.308c-.027.004-.045.011-.06.007-.78-.211-1.249-.021-1.485.617a2.528 2.528 0 0 0-.11 1.428c.192.924.924 1.244 1.985.89.098.43.042.482-.459.6-.71.166-1.4-.082-1.798-.61zm29.313 3.875c-.065-.375-.381-.6-.838-.605-.141-.002-.281.012-.418-.003-.27-.028-.341.062-.339.276.013 1.05.009 2.099.005 3.146-.003.549-.539 1.113-1.183 1.256-2 .439-3.998.885-5.999 1.32a3.156 3.156 0 0 1-.691.072c-.1 0-.238-.076-.281-.15-.028-.049.06-.168.129-.229.091-.074.207-.133.326-.174.367-.131.74-.25 1.111-.373 1.485-.494 2.973-.982 4.456-1.479.669-.226 1.03-.672 1.041-1.235.034-1.824.017-3.648.009-5.474 0-.289-.15-.53-.494-.655-.396-.142-.744-.029-1.088.135a7275.335 7275.335 0 0 1-6.306 3.005c-.619.295-.964.722-.961 1.33.007 1.725.002 3.447.004 5.17 0 .086.009.174.036.256.207.586.744.922 1.486.922 1.479.004 2.963.002 4.443.002 1.475 0 2.945.002 4.42-.002.32 0 .615-.066.855-.264.311-.25.295-.568.295-.885.001-1.681.001-3.359-.001-5.041a1.65 1.65 0 0 0-.017-.321zm-6.15-.539c.149-.387.474-.629.97-.691.328-.042.614.161.661.457.071.456-.499.986-1.062.984-.469 0-.731-.329-.569-.75zm-21.595 2.502c-.444-.034-.896-.006-1.375-.006v-2.473h-.964v6.875c.713 0 1.402.041 2.082-.011 1.019-.076 1.796-.481 2.16-1.312.212-.482.216-.984.116-1.488-.186-.928-.892-1.492-2.019-1.585zm.528 2.628c-.179.76-.957 1.118-1.895.896 0-.844-.004-1.674.008-2.506 0-.055.096-.145.165-.158.938-.199 1.565.113 1.728.896.058.281.06.59-.006.872zm2.525-5.114h4.137v.695h-3.113v6.214h-1.021c-.003-2.298-.003-4.595-.003-6.909z"/></symbol><symbol viewBox="0 0 48.432 48.431" id="money-3" xmlns="http://www.w3.org/2000/svg"><path d="M41.412 24.389c0 .247-.021.474-.061.681-.144.883-.941 1.392-1.311 1.392-.615.012-.983-.506-.983-1.278 0-.912.532-1.947 1.413-1.947.697-.003.942.56.942 1.152zm1.947 2.732h-.043v.101h.062s.021 0 .041-.008c.021-.009.021-.028.021-.045 0-.015 0-.031-.021-.039.001-.009-.04-.009-.06-.009zm4.024 4.908a.461.461 0 0 1 0 .464.455.455 0 0 1-.173.175.474.474 0 0 1-.465 0 .464.464 0 0 1-.236-.407.469.469 0 0 1 .468-.468c.079 0 .155.021.229.062a.418.418 0 0 1 .177.174zm-.307.236c.041-.018.061-.059.061-.102a.145.145 0 0 0-.041-.098.221.221 0 0 0-.102-.022h-.164v.392h.082v-.154h.061l.062.154h.102l-.061-.17zM23.983 23.9c0-.46-.287-.729-.799-.729-.553 0-.942.361-1.106 1.019l1.905.004V23.9zm19.724 3.346c0 .188-.143.34-.328.34a.348.348 0 0 1-.348-.34c0-.185.164-.336.348-.336a.33.33 0 0 1 .328.336zm-.227.027a.109.109 0 0 0 .062-.102.146.146 0 0 0-.041-.098.228.228 0 0 0-.104-.023h-.164v.393h.082v-.153h.062l.062.153h.103l-.062-.17zm4.952-3.064v.007c.002 8.005-6.484 14.497-14.49 14.499a14.431 14.431 0 0 1-9.729-3.749c.012-.012.025-.02.037-.031l-.001-.002h.003c.527-.48 1.02-.998 1.472-1.552H22.73c.459.562.945 1.099 1.482 1.584a14.435 14.435 0 0 1-9.717 3.745C6.494 38.71 0 32.217 0 24.215c0-7.97 6.443-14.444 14.402-14.496h.093c3.738 0 7.146 1.418 9.718 3.745a14.44 14.44 0 0 1 9.723-3.748c8.003-.001 14.494 6.488 14.496 14.493zm-26.571-7.695h4.913a14.427 14.427 0 0 0-1.125-1.552h-2.754c-.372.501-.72 1.033-1.034 1.552zM20.22 19.59h8.013c-.18-.532-.388-1.05-.625-1.553h-6.605c-.424.799-.704 1.403-.783 1.553zm-5.168 1.118h-2.786l-1.905 4.324-.123-4.324H7.555L6.223 27.69H7.78l1.024-5.334.287 5.334h1.557l2.355-5.37-1.024 5.37h1.72l1.353-6.982zm4.854 2.842c0-1.088-.779-1.665-2.253-1.665-.635 0-1.188.081-2.048.299l-.225 1.279.143-.037.246-.062c.368-.098.921-.157 1.413-.157.798 0 1.106.14 1.106.515 0 .104-.021.182-.062.369a7.39 7.39 0 0 0-.696-.044c-1.904 0-3.01.808-3.01 2.19 0 .916.635 1.549 1.557 1.549.778 0 1.373-.217 1.802-.685l-.041.587h1.433l.02-.154.021-.194.041-.288.061-.361.369-2.017c.103-.631.123-.843.123-1.124zm.308 1.704c0 1.673 1.004 2.546 2.929 2.546.594 0 1.167-.075 1.741-.229l.286-1.422c-.614.25-1.167.36-1.782.36-.983 0-1.495-.335-1.495-.992 0-.054 0-.093.021-.18h3.398c.145-.576.207-.983.207-1.404 0-1.259-.902-2.062-2.314-2.062-1.721.002-2.991 1.436-2.991 3.383zm7.422 5.083h-6.843c.251.539.544 1.052.856 1.552h5.143c.312-.499.593-1.016.844-1.552zm2.552-8.339a13.389 13.389 0 0 0-1.535-.112c-1.926 0-2.602.873-2.602 1.922 0 .716.41 1.212 1.331 1.583.696.283.799.367.799.627 0 .354-.307.512-.983.512a5.478 5.478 0 0 1-1.557-.224l-.246 1.31.082.016.307.056c.104.021.267.037.472.052.41.03.717.047.941.047 1.844 0 2.684-.599 2.684-1.895 0-.779-.35-1.236-1.229-1.581-.717-.288-.799-.352-.799-.618 0-.305.286-.461.84-.461.349 0 .799.031 1.25.083l.245-1.317zm1.843 4c0-.053 0-.131.021-.234l.45-2.369h.881l.246-1.382h-.88l.245-1.304h-1.699l-.799 4.336-.081.449-.103.559c-.021.18-.041.35-.041.51 0 .805.471 1.248 1.352 1.248.39 0 .758-.057 1.229-.186l.225-1.26a1.545 1.545 0 0 1-.449.055c-.412-.002-.597-.127-.597-.422zm4.998-2.374l.205.042.612-1.605c-.144-.056-.164-.056-.184-.062-.083-.02-.146-.031-.146-.034a1.426 1.426 0 0 0-.185-.014c-.554 0-.962.252-1.495.923l.164-.862h-1.557l-1.045 5.68h1.721c.615-3.473.88-4.083 1.699-4.083.068 0 .129.005.211.015zm6.166 1.493c.041-.33.041-.354.041-.707 0-1.44-.942-2.562-2.726-2.562-2.048 0-3.379 1.365-3.379 3.376 0 1.441.776 2.619 2.726 2.619 1.76.001 3.071-.838 3.338-2.726zm.635 2.129c0-.242-.205-.441-.451-.441s-.451.199-.451.441c0 .246.205.445.451.445s.451-.199.451-.445zm-27.651-1.242c0 .353.226.579.614.579.697 0 1.188-.582 1.229-1.422a3.207 3.207 0 0 0-.39-.021c-.961-.001-1.453.29-1.453.864zm30.774 6.111h-.041v.101h.062s.021 0 .041-.008c.021-.009.021-.028.021-.046 0-.014 0-.03-.021-.039 0-.008-.041-.008-.062-.008z"/></symbol><symbol viewBox="0 0 512 512" id="natural" xmlns="http://www.w3.org/2000/svg"><path d="M196 181c-24.813 0-45 20.187-45 45 0 8.284 6.716 15 15 15s15-6.716 15-15c0-8.271 6.729-15 15-15s15 6.729 15 15c0 8.284 6.716 15 15 15s15-6.716 15-15c0-24.813-20.187-45-45-45zm120 0c-24.813 0-45 20.187-45 45 0 8.284 6.716 15 15 15s15-6.716 15-15c0-8.271 6.729-15 15-15s15 6.729 15 15c0 8.284 6.716 15 15 15s15-6.716 15-15c0-24.813-20.187-45-45-45zm0 90c-8.284 0-15 6.716-15 15 0 24.813-20.187 45-45 45s-45-20.187-45-45c0-8.284-6.716-15-15-15s-15 6.716-15 15c0 41.355 33.645 75 75 75s75-33.645 75-75c0-8.284-6.716-15-15-15z"/><path d="M256 91c-90.981 0-165 74.019-165 165s74.019 165 165 165 165-74.019 165-165S346.981 91 256 91zm0 300c-74.439 0-135-60.561-135-135s60.561-135 135-135 135 60.561 135 135-60.561 135-135 135zm0-391c-8.284 0-15 6.716-15 15v31c0 8.284 6.716 15 15 15s15-6.716 15-15V15c0-8.284-6.716-15-15-15zm0 451c-8.284 0-15 6.716-15 15v31c0 8.284 6.716 15 15 15s15-6.716 15-15v-31c0-8.284-6.716-15-15-15zM46 241H15c-8.284 0-15 6.716-15 15s6.716 15 15 15h31c8.284 0 15-6.716 15-15s-6.716-15-15-15zm451 0h-31c-8.284 0-15 6.716-15 15s6.716 15 15 15h31c8.284 0 15-6.716 15-15s-6.716-15-15-15zM163.99 66.635l-15-25.981c-4.142-7.174-13.315-9.633-20.49-5.49-7.174 4.142-9.632 13.316-5.49 20.49l15 25.981c4.144 7.178 13.32 9.63 20.49 5.49 7.174-4.142 9.632-13.316 5.49-20.49zm225 389.711l-15-25.981c-4.141-7.174-13.315-9.632-20.49-5.49-7.174 4.142-9.632 13.316-5.49 20.49l15 25.981c4.144 7.178 13.32 9.63 20.49 5.49 7.174-4.142 9.632-13.316 5.49-20.49zM87.125 353.5c-4.142-7.174-13.316-9.633-20.49-5.49l-25.981 15c-7.174 4.142-9.632 13.316-5.49 20.49 4.144 7.178 13.32 9.63 20.49 5.49l25.981-15c7.174-4.142 9.632-13.316 5.49-20.49zm389.711-225c-4.142-7.174-13.316-9.633-20.49-5.49l-25.981 15c-7.174 4.142-9.632 13.316-5.49 20.49 4.144 7.178 13.32 9.63 20.49 5.49l25.981-15c7.174-4.142 9.632-13.316 5.49-20.49zm-395.201 9.51l-25.981-15c-7.175-4.145-16.349-1.684-20.49 5.49-4.142 7.174-1.684 16.348 5.49 20.49l25.981 15c7.171 4.141 16.348 1.686 20.49-5.49 4.142-7.174 1.684-16.348-5.49-20.49zm389.711 225l-25.981-15c-7.175-4.144-16.35-1.684-20.49 5.49-4.142 7.174-1.684 16.348 5.49 20.49l25.981 15c7.171 4.141 16.348 1.686 20.49-5.49 4.142-7.174 1.684-16.348-5.49-20.49zM158.5 424.875c-7.175-4.144-16.349-1.685-20.49 5.49l-15 25.981c-4.142 7.174-1.684 16.348 5.49 20.49 7.171 4.141 16.348 1.686 20.49-5.49l15-25.981c4.142-7.174 1.684-16.348-5.49-20.49zm225-389.711c-7.175-4.144-16.349-1.685-20.49 5.49l-15 25.981c-4.142 7.174-1.684 16.348 5.49 20.49 7.171 4.141 16.348 1.686 20.49-5.49l15-25.981c4.142-7.174 1.684-16.348-5.49-20.49z"/></symbol><symbol viewBox="0 0 60 60" id="play" xmlns="http://www.w3.org/2000/svg"><path d="M30 0C13.458 0 0 13.458 0 30s13.458 30 30 30 30-13.458 30-30S46.542 0 30 0zm15.563 30.826l-22 15a1.002 1.002 0 0 1-1.03.058A.999.999 0 0 1 22 45V15a.999.999 0 0 1 1.564-.826l22 15a1.001 1.001 0 0 1-.001 1.652z"/></symbol><symbol viewBox="0 0 58 58" id="quality" xmlns="http://www.w3.org/2000/svg"><path d="M9.5 43c-2.757 0-5 2.243-5 5s2.243 5 5 5 5-2.243 5-5-2.243-5-5-5zm0 8c-1.654 0-3-1.346-3-3s1.346-3 3-3 3 1.346 3 3-1.346 3-3 3z"/><path d="M56.5 35c0-2.495-1.375-3.662-2.715-4.233A4.992 4.992 0 0 0 55.5 27c0-2.757-2.243-5-5-5H36.134l.729-3.41c.973-4.549.334-9.716.116-11.191C36.461 3.906 33.372 0 30.013 0h-.239C28.178 0 25.5.909 25.5 7c0 8.023-2.002 11.694-3.681 13.36-1.647 1.634-3.231 1.616-3.319 1.64h-1v-2h-16v38h16v-2h28c2.757 0 5-2.243 5-5a4.98 4.98 0 0 0-1.069-3.087A5.008 5.008 0 0 0 53.5 43a4.98 4.98 0 0 0-1.069-3.087A5.008 5.008 0 0 0 56.5 35zm-53 21V22h12v34h-12zm48-18h-11a1 1 0 1 0 0 2h8c1.654 0 3 1.346 3 3s-1.346 3-3 3h-10a1 1 0 1 0 0 2h7c1.654 0 3 1.346 3 3s-1.346 3-3 3h-28V24l.969-.001c.097.019 2.42.05 4.682-2.144C26.037 19.059 27.5 14.061 27.5 7c0-1.867.295-5 2.274-5h.239C32.244 2 34.621 5.13 35 7.691c.207 1.392.81 6.26-.093 10.48L33.662 24H50.5c1.654 0 3 1.346 3 3s-1.346 3-3 3h-10a1 1 0 1 0 0 2h7c.883 0 2.825.04 3.854.193C53.965 32.58 54.5 33.595 54.5 35c0 1.654-1.346 3-3 3z"/></symbol><symbol viewBox="0 0 453.487 453.487" id="quality-badge" xmlns="http://www.w3.org/2000/svg"><path d="M390.523 159.76l-24.017-31.377 5.13-39.185a9.998 9.998 0 0 0-6.09-10.537l-36.51-15.116-15.115-36.51a9.998 9.998 0 0 0-10.537-6.09l-39.186 5.13-31.376-24.016a10.001 10.001 0 0 0-12.156 0l-31.377 24.017-39.185-5.13a10.002 10.002 0 0 0-10.537 6.09l-15.116 36.51-36.51 15.115a10 10 0 0 0-6.09 10.538l5.13 39.186-24.017 31.375a9.998 9.998 0 0 0 0 12.156l24.017 31.377-5.13 39.185a9.998 9.998 0 0 0 6.09 10.537l36.51 15.115 15.115 36.511a9.987 9.987 0 0 0 7.554 6.026v132.819a10 10 0 0 0 15.357 8.445l64.268-40.764 64.268 40.764a9.993 9.993 0 0 0 10.174.319 10.002 10.002 0 0 0 5.182-8.763V310.666a10.005 10.005 0 0 0 7.553-6.024l15.116-36.51 36.51-15.115a10 10 0 0 0 6.09-10.538l-5.13-39.186 24.017-31.377a10.001 10.001 0 0 0-.002-12.156zM232.1 390.882a10 10 0 0 0-10.713 0l-54.268 34.421V308.504l22.169-2.902 31.377 24.017c1.794 1.373 3.936 2.059 6.078 2.059s4.284-.687 6.078-2.059l31.377-24.017 22.169 2.903v116.798L232.1 390.882zm116.015-196.464a10.002 10.002 0 0 0-1.975 7.376l4.67 35.677-33.253 13.767a10 10 0 0 0-5.414 5.414l-13.768 33.253-35.677-4.671a10.008 10.008 0 0 0-7.376 1.975l-28.579 21.875-28.579-21.875a9.998 9.998 0 0 0-7.376-1.975l-35.678 4.671-13.767-33.254a10.005 10.005 0 0 0-5.414-5.415l-33.253-13.767 4.67-35.676a9.993 9.993 0 0 0-1.975-7.376l-21.875-28.58 21.875-28.579a10.002 10.002 0 0 0 1.975-7.376l-4.67-35.677L135.93 80.44a10 10 0 0 0 5.414-5.414l13.768-33.253 35.677 4.671a9.996 9.996 0 0 0 7.376-1.975l28.579-21.875 28.579 21.875a10 10 0 0 0 7.376 1.975l35.678-4.671 13.767 33.253a9.997 9.997 0 0 0 5.414 5.414l33.253 13.768-4.67 35.676a9.993 9.993 0 0 0 1.975 7.376l21.875 28.579-21.876 28.579z"/><path d="M165.661 101.322A9.96 9.96 0 0 0 172 99.051c15.373-12.618 34.814-19.567 54.744-19.567 5.522 0 10-4.477 10-10s-4.478-10-10-10c-24.544 0-48.492 8.562-67.434 24.107-4.269 3.504-4.889 9.805-1.385 14.074a9.978 9.978 0 0 0 7.736 3.657z"/><path d="M262.403 65.613c-5.204-1.85-10.922.867-12.774 6.069-1.851 5.203.866 10.922 6.069 12.773 34.333 12.215 57.4 44.921 57.4 81.383 0 47.616-38.738 86.354-86.354 86.354s-86.354-38.738-86.354-86.354c0-16.938 4.899-33.333 14.168-47.414 3.037-4.613 1.759-10.814-2.854-13.851-4.612-3.036-10.814-1.76-13.851 2.854-11.425 17.355-17.463 37.553-17.463 58.411 0 58.644 47.71 106.354 106.354 106.354s106.354-47.71 106.354-106.354c0-44.902-28.41-85.18-70.695-100.225z"/></symbol><symbol viewBox="0 0 24 24" id="search" xmlns="http://www.w3.org/2000/svg"><path d="M12 2c3.196 0 6 2.618 6 5.602 0 3.093-2.493 7.132-6 12.661-3.507-5.529-6-9.568-6-12.661C6 4.618 8.804 2 12 2m0-2C7.802 0 4 3.403 4 7.602 4 11.8 7.469 16.812 12 24c4.531-7.188 8-12.2 8-16.398C20 3.403 16.199 0 12 0zm0 11a3 3 0 1 1 0-6 3 3 0 0 1 0 6z"/></symbol><symbol viewBox="0 0 47.901 47.902" id="symbols" xmlns="http://www.w3.org/2000/svg"><path d="M18.651 28.578l1.97-2.115v4.303l-1.97-2.188zm-6.268-1.584v.977h2.815v1.096h-2.815v1.068h3.152L17 28.558l-1.403-1.562h-3.215v-.002zm34.879.806c.438.453.64 1.01.64 1.758 0 1.615-1.083 2.58-2.9 2.58h-2.498a.883.883 0 0 1-.814-.539c-.485.344-1.133.539-1.928.539h-2.498a.867.867 0 0 1-.385-.096.877.877 0 0 1-.385.096h-4.281a.879.879 0 0 1-.391-.1.844.844 0 0 1-.392.1h-1.287a.887.887 0 0 1-.887-.885v-.781a4.673 4.673 0 0 0-.002-.287 3.828 3.828 0 0 0-.261-.008h-.483v1.076a.886.886 0 0 1-.887.885h-1.289a.886.886 0 0 1-.887-.885v-1.365c-.456.271-1.083.449-1.95.449h-.713v.916a.886.886 0 0 1-.887.885h-2.493a.884.884 0 0 1-.663-.297l-.929-1.045-.979 1.059a.883.883 0 0 1-.65.285h-5.081a.886.886 0 0 1-.886-.887v-5.367c0-.49.396-.887.886-.887h5.158c.253 0 .492.104.659.295l.932 1.035.971-1.047a.884.884 0 0 1 .651-.282h4.098c.897 0 1.528.199 1.979.492a.879.879 0 0 1 .783-.492h2.963c.68 0 1.34.025 1.961.357.064.038.109.088.17.131A.88.88 0 0 1 32.21 25h4.28c.332 0 .609.188.763.463.424-.288.981-.463 1.688-.463h2.57c.387 0 .703.248.826.592.44-.356 1.044-.592 1.845-.592h2.57c.49 0 .887.396.887.887v1.143a.887.887 0 0 1-.405.744l.028.026zm-21.53-.146c0-1.486-1.145-1.771-2.162-1.771h-4.098l-1.632 1.76-1.58-1.76h-5.158v5.368h5.081l1.642-1.776 1.58 1.776h2.493V29.45h1.6c1.122.003 2.234-.307 2.234-1.796zm4.859 1.105c.336-.135.909-.572.909-1.43 0-.611-.255-.947-.659-1.191-.423-.225-.895-.252-1.543-.252h-2.963v5.367h1.289v-1.959h1.37c.47 0 .755.045.939.236.24.25.209.729.209 1.051v.672h1.287v-1.064c-.006-.473-.03-.717-.213-.979-.108-.158-.341-.347-.625-.451zm5.901-2.873h-4.28v5.367h4.28V30.14l-3.004-.006v-1.066h2.93v-1.096h-2.93v-.977h3.004v-1.109zm5.279 3.671c0-.551-.133-.879-.385-1.138-.289-.293-.768-.413-1.463-.432l-.689-.02c-.219 0-.363-.014-.5-.061a.413.413 0 0 1-.28-.4c0-.17.053-.299.194-.387.128-.088.279-.098.514-.098h2.353v-1.142h-2.57c-1.346 0-1.834.817-1.834 1.598 0 1.697 1.503 1.621 2.701 1.66.225 0 .357.037.457.119.09.075.156.198.156.354a.477.477 0 0 1-.15.351c-.108.103-.281.133-.523.133h-2.487v1.153h2.498c1.289.006 2.008-.533 2.008-1.69zm5.243 0c0-.551-.135-.879-.385-1.138-.289-.293-.769-.413-1.465-.432l-.689-.02c-.219 0-.362-.014-.5-.061a.415.415 0 0 1-.279-.4c0-.17.052-.299.193-.387.127-.088.279-.098.515-.098h2.352v-1.142h-2.57c-1.346 0-1.834.817-1.834 1.598 0 1.697 1.502 1.621 2.701 1.66.226 0 .358.037.457.119.09.075.156.198.156.354a.477.477 0 0 1-.15.351c-.107.103-.28.133-.522.133h-2.488v1.153h2.498c1.289.006 2.01-.533 2.01-1.69zm-23.443-2.563h-1.672v1.367h1.656c.493 0 .8-.244.8-.707-.001-.472-.32-.66-.784-.66zm.754-8.147c.165-.087.264-.276.264-.51 0-.23-.103-.396-.269-.474-.152-.086-.386-.097-.608-.097h-1.58v1.191h1.559c.247 0 .455-.004.634-.11zm5.491 8.246c-.156-.093-.386-.097-.612-.097h-1.58v1.205h1.559c.25 0 .463-.008.636-.109.166-.102.265-.285.265-.516-.003-.231-.102-.397-.268-.483zm4.738-9.533l-.881 2.139h1.771l-.89-2.139zm-31.32 2.139h1.749l-.878-2.139-.871 2.139zm7.179 3.202a.887.887 0 0 1-.81-.527l-.168-.381v.021a.886.886 0 0 1-.886.886H5.94a.886.886 0 0 1-.82-.549l-.267-.648H3.367l-.271.652a.886.886 0 0 1-.816.546H.886a.888.888 0 0 1-.814-1.235l2.296-5.367a.888.888 0 0 1 .815-.537h1.904c.355 0 .675.211.815.536l.481 1.122v-.771c0-.489.396-.886.886-.886h2.094a.89.89 0 0 1 .805.515l.839 1.822.762-1.796a.885.885 0 0 1 .814-.541h2.138c.18 0 .337.067.478.159a.862.862 0 0 1 .478-.159h4.284c.166 0 .313.058.444.137a.867.867 0 0 1 .445-.137h2.95c.763 0 1.396.027 1.998.375.062.036.104.084.159.124a.883.883 0 0 1 .789-.499h1.31c.442 0 .793.33.859.753.574-.498 1.354-.753 2.408-.753h1.239a.88.88 0 0 1 .531.176.878.878 0 0 1 .529-.176h1.922c.354 0 .674.212.813.537l.471 1.102v-.753c0-.489.396-.886.886-.886h1.955a.89.89 0 0 1 .758.428l.609 1.011v-.554c0-.489.396-.886.887-.886h1.313c.488 0 .886.397.886.886v5.367a.886.886 0 0 1-.886.886H41.42a.889.889 0 0 1-.76-.428l-.787-1.305v.847a.886.886 0 0 1-.886.886h-2.61a.886.886 0 0 1-.818-.545l-.271-.652H33.81l-.261.643a.883.883 0 0 1-.817.555h-1.503c-.57 0-1.594-.103-2.321-.714a.874.874 0 0 1-.853.714h-1.31a.872.872 0 0 1-.401-.107.865.865 0 0 1-.397.107h-1.294a.888.888 0 0 1-.887-.879l-.005-.677.002-.118c0-.072.002-.18-.004-.271a3.697 3.697 0 0 0-.249-.007h-.49v1.066a.886.886 0 0 1-.886.886H20.85a.864.864 0 0 1-.445-.137.855.855 0 0 1-.444.137h-4.284a.87.87 0 0 1-.478-.159.876.876 0 0 1-.478.159h-1.315a.885.885 0 0 1-.886-.885v-.022l-.17.38a.884.884 0 0 1-.81.528l-1.127-.002zm18.269-3.529c0 .975.234 1.593.688 2.049.446.455 1.233.593 1.856.593h1.502l.482-1.197h2.666l.5 1.197h2.61v-4.028l2.433 4.028h1.817v-5.367h-1.313v3.738l-2.254-3.738h-1.955v5.076l-2.17-5.076h-1.922l-1.812 4.22h-.575c-.335 0-.695-.064-.894-.277-.24-.271-.354-.685-.354-1.259 0-.563.149-.99.368-1.216.254-.249.519-.318.986-.318h1.215v-1.15h-1.239c-.886 0-1.535.197-1.948.625-.546.576-.687 1.304-.687 2.1zm2.666-.689c-.301 0-.332.031-.369.067-.012.017-.102.21-.102.582 0 .368.059.545.102.625.046.012.129.026.252.026l.557-1.299-.44-.001zm-4.602 3.331h1.31v-5.367h-1.31v5.367zm-5.897 0h1.284v-1.952h1.375c.462 0 .748.041.935.229.233.259.202.723.202 1.045l.006.677h1.294V20.96c0-.479-.031-.717-.213-.984-.114-.156-.354-.344-.635-.452.332-.132.903-.575.903-1.43 0-.599-.243-.949-.649-1.189-.414-.24-.897-.257-1.553-.257h-2.95v5.366zm-5.173 0h4.284v-1.11h-3.002v-1.072h2.931v-1.1h-2.931v-.967h3.002v-1.118h-4.284v5.367zm-5.263 0h1.127l1.86-4.203.005 4.203h1.315v-5.367h-2.138l-1.541 3.641-1.679-3.641H7.268v5.082l-2.183-5.082H3.181L.884 22.014h1.394l.498-1.197h2.67l.493 1.197H8.55v-4.207l1.863 4.207z"/></symbol><symbol viewBox="0 0 49.047 49.047" id="symbols-1" xmlns="http://www.w3.org/2000/svg"><path d="M31.15 22.536a3.05 3.05 0 0 0-1.051-.82c-.422-.203-.91-.305-1.473-.305-.561 0-1.053.102-1.476.305a3.076 3.076 0 0 0-1.057.82c-.28.343-.489.739-.631 1.186a4.661 4.661 0 0 0-.211 1.411c0 .494.07.966.211 1.41.142.446.352.84.631 1.183.279.34.633.61 1.057.813.423.202.915.305 1.476.305.562 0 1.051-.103 1.473-.305.42-.203.771-.476 1.051-.813.279-.343.49-.732.63-1.183a4.64 4.64 0 0 0 .21-1.41 4.67 4.67 0 0 0-.21-1.411 3.5 3.5 0 0 0-.63-1.186zm.005 3.742a3.116 3.116 0 0 1-.48 1.011 2.401 2.401 0 0 1-.83.715c-.336.181-.74.271-1.215.271s-.881-.09-1.222-.271a2.427 2.427 0 0 1-.835-.715 3.075 3.075 0 0 1-.48-1.011 4.382 4.382 0 0 1 0-2.297c.104-.373.266-.708.48-1.005a2.43 2.43 0 0 1 .835-.716c.341-.18.747-.27 1.222-.27s.879.09 1.215.27c.339.181.613.419.83.716.219.297.377.632.48 1.005.104.374.155.757.155 1.151a4.29 4.29 0 0 1-.155 1.146zm-6.749-4.718h.681l-1.97 7.145h-.722l-1.811-6.394h-.02l-1.801 6.394h-.74l-1.98-7.145h.73l1.621 6.253h.02l1.741-6.253h.85l1.752 6.253h.02l1.629-6.253zm9.125 6.563h4.002v.582H32.85V21.56h.681v6.563zm11.955-6.563l-2.638 6.563h-3.945v-6.562h-.683v7.145h5.115l.861-2.223h3.25l.871 2.223h.729l-2.801-7.145-.759-.001zm-1.08 4.341l1.431-3.661 1.381 3.661h-2.812zM5.769 23.21c-.461-.608-.968-1.203-1.301-1.88-.484-.98-.572-2.328.7-3.243-1.265.574-2.534 1.14-3.793 1.726-.862.402-1.283 1.104-1.266 2.052.017.912.402 1.692.956 2.388a51.821 51.821 0 0 0 1.627 1.913c.047.056.085.104.115.151l.015.017c-.308.131-.613.271-.909.407-.21.099-.42.193-.632.287-1.164.517-1.56 1.513-1.083 2.73.287.74.946 1.201 1.718 1.201.159 0 .324-.021.487-.061l.029-.01c.176-.068.334-.154.479-.25A91.711 91.711 0 0 0 6.65 28.91c.808-.396 1.128-1.125 1.146-2.013.014-.729-.223-1.328-.638-1.938-.415-.606-.938-1.155-1.389-1.749zM2.29 30.487a1.662 1.662 0 0 1-.373.043c-.601 0-1.094-.346-1.32-.926-.391-1.008-.095-1.764.859-2.186.214-.096.425-.191.638-.291.315-.146.641-.297.965-.434.022-.008.042-.019.062-.025.11.143.232.316.345.521.17.332.298.738.269 1.182-.053.763-.458 1.716-1.445 2.116zm10.291-8.927H10.11v7.145h2.471c1.088-.026 1.906-.332 2.457-.916.55-.584.825-1.47.825-2.656 0-1.188-.275-2.072-.825-2.656-.551-.585-1.369-.89-2.457-.917zm2.431 4.942c-.113.381-.289.69-.53.933a2.101 2.101 0 0 1-.915.522c-.37.11-.813.166-1.325.166h-1.451v-5.982h1.451c.513 0 .955.056 1.325.165.37.11.676.285.915.525.241.24.417.551.53.931.114.38.17.837.17 1.372 0 .532-.055.989-.17 1.368z"/></symbol><symbol viewBox="0 0 612 612" id="tw" xmlns="http://www.w3.org/2000/svg"><path d="M612 116.258a250.714 250.714 0 0 1-72.088 19.772c25.929-15.527 45.777-40.155 55.184-69.411-24.322 14.379-51.169 24.82-79.775 30.48-22.907-24.437-55.49-39.658-91.63-39.658-69.334 0-125.551 56.217-125.551 125.513 0 9.828 1.109 19.427 3.251 28.606-104.326-5.24-196.835-55.223-258.75-131.174-10.823 18.51-16.98 40.078-16.98 63.101 0 43.559 22.181 81.993 55.835 104.479a125.556 125.556 0 0 1-56.867-15.756v1.568c0 60.806 43.291 111.554 100.693 123.104-10.517 2.83-21.607 4.398-33.08 4.398-8.107 0-15.947-.803-23.634-2.333 15.985 49.907 62.336 86.199 117.253 87.194-42.947 33.654-97.099 53.655-155.916 53.655-10.134 0-20.116-.612-29.944-1.721 55.567 35.681 121.536 56.485 192.438 56.485 230.948 0 357.188-191.291 357.188-357.188l-.421-16.253c24.666-17.593 46.005-39.697 62.794-64.861z"/></symbol><symbol viewBox="0 0 24 24" id="user" xmlns="http://www.w3.org/2000/svg"><path d="M23.995 24H22c0-3.104.119-3.55-1.761-3.986-2.877-.664-5.594-1.291-6.584-3.458-.361-.791-.601-2.095.31-3.814 2.042-3.857 2.554-7.165 1.403-9.076-1.341-2.229-5.413-2.241-6.766.034-1.154 1.937-.635 5.227 1.424 9.025.93 1.712.697 3.02.338 3.815-.982 2.178-3.675 2.799-6.525 3.456C1.875 20.45 2 20.866 2 24H.005L0 22.759c0-2.52.199-3.975 3.178-4.663 3.365-.777 6.688-1.473 5.09-4.418C3.535 4.949 6.918 0 12 0c4.983 0 8.451 4.766 3.732 13.678-1.551 2.928 1.65 3.624 5.09 4.418 2.979.688 3.178 2.143 3.178 4.663L23.995 24zm-13.478-6l.91 2h1.164l.92-2h-2.994zm2.995 6l-.704-3h-1.615l-.704 3h3.023z"/></symbol><symbol viewBox="0 0 548.358 548.358" id="vk" xmlns="http://www.w3.org/2000/svg"><path d="M545.451 400.298c-.664-1.431-1.283-2.618-1.858-3.569-9.514-17.135-27.695-38.167-54.532-63.102l-.567-.571-.284-.28-.287-.287h-.288c-12.18-11.611-19.893-19.418-23.123-23.415-5.91-7.614-7.234-15.321-4.004-23.13 2.282-5.9 10.854-18.36 25.696-37.397 7.807-10.089 13.99-18.175 18.556-24.267 32.931-43.78 47.208-71.756 42.828-83.939l-1.701-2.847c-1.143-1.714-4.093-3.282-8.846-4.712-4.764-1.427-10.853-1.663-18.278-.712l-82.224.568c-1.332-.472-3.234-.428-5.712.144l-3.713.859-1.431.715-1.136.859c-.952.568-1.999 1.567-3.142 2.995-1.137 1.423-2.088 3.093-2.848 4.996-8.952 23.031-19.13 44.444-30.553 64.238-7.043 11.803-13.511 22.032-19.418 30.693-5.899 8.658-10.848 15.037-14.842 19.126-4 4.093-7.61 7.372-10.852 9.849-3.237 2.478-5.708 3.525-7.419 3.142-1.715-.383-3.33-.763-4.859-1.143-2.663-1.714-4.805-4.045-6.42-6.995-1.622-2.95-2.714-6.663-3.285-11.136-.568-4.476-.904-8.326-1-11.563-.089-3.233-.048-7.806.145-13.706.198-5.903.287-9.897.287-11.991 0-7.234.141-15.085.424-23.555.288-8.47.521-15.181.716-20.125.194-4.949.284-10.185.284-15.705s-.336-9.849-1-12.991a44.442 44.442 0 0 0-2.99-9.137c-1.335-2.95-3.289-5.232-5.853-6.852-2.569-1.618-5.763-2.902-9.564-3.856-10.089-2.283-22.936-3.518-38.547-3.71-35.401-.38-58.148 1.906-68.236 6.855-3.997 2.091-7.614 4.948-10.848 8.562-3.427 4.189-3.905 6.475-1.431 6.851 11.422 1.711 19.508 5.804 24.267 12.275l1.715 3.429c1.334 2.474 2.666 6.854 3.999 13.134 1.331 6.28 2.19 13.227 2.568 20.837.95 13.897.95 25.793 0 35.689-.953 9.9-1.853 17.607-2.712 23.127-.859 5.52-2.143 9.993-3.855 13.418-1.715 3.426-2.856 5.52-3.428 6.28-.571.76-1.047 1.239-1.425 1.427a21.387 21.387 0 0 1-7.71 1.431c-2.667 0-5.901-1.334-9.707-4-3.805-2.666-7.754-6.328-11.847-10.992-4.093-4.665-8.709-11.184-13.85-19.558-5.137-8.374-10.467-18.271-15.987-29.691l-4.567-8.282c-2.855-5.328-6.755-13.086-11.704-23.267-4.952-10.185-9.329-20.037-13.134-29.554-1.521-3.997-3.806-7.04-6.851-9.134l-1.429-.859c-.95-.76-2.475-1.567-4.567-2.427a30.301 30.301 0 0 0-6.567-1.854l-78.229.568c-7.994 0-13.418 1.811-16.274 5.428l-1.143 1.711c-.571.953-.859 2.475-.859 4.57 0 2.094.571 4.664 1.714 7.707 11.42 26.84 23.839 52.725 37.257 77.659 13.418 24.934 25.078 45.019 34.973 60.237 9.897 15.229 19.985 29.602 30.264 43.112 10.279 13.515 17.083 22.176 20.412 25.981 3.333 3.812 5.951 6.662 7.854 8.565l7.139 6.851c4.568 4.569 11.276 10.041 20.127 16.416 8.853 6.379 18.654 12.659 29.408 18.85 10.756 6.181 23.269 11.225 37.546 15.126 14.275 3.905 28.169 5.472 41.684 4.716h32.834c6.659-.575 11.704-2.669 15.133-6.283l1.136-1.431c.764-1.136 1.479-2.901 2.139-5.276.668-2.379 1-5 1-7.851-.195-8.183.428-15.558 1.852-22.124 1.423-6.564 3.045-11.513 4.859-14.846 1.813-3.33 3.859-6.14 6.136-8.418 2.282-2.283 3.908-3.666 4.862-4.142.948-.479 1.705-.804 2.276-.999 4.568-1.522 9.944-.048 16.136 4.429 6.187 4.473 11.99 9.996 17.418 16.56 5.425 6.57 11.943 13.941 19.555 22.124 7.617 8.186 14.277 14.271 19.985 18.274l5.708 3.426c3.812 2.286 8.761 4.38 14.853 6.283 6.081 1.902 11.409 2.378 15.984 1.427l73.087-1.14c7.229 0 12.854-1.197 16.844-3.572 3.998-2.379 6.373-5 7.139-7.851.764-2.854.805-6.092.145-9.712-.677-3.611-1.344-6.136-2.008-7.563z"/></symbol><symbol viewBox="0 0 49.888 49.888" id="webmoney" xmlns="http://www.w3.org/2000/svg"><path d="M8.029 23.715c-1.124 0-1.701.823-1.701 1.963 0 1.185.518 1.964 1.776 1.964.539 0 .989-.15 1.326-.347v-.567c-.412.245-.787.389-1.191.389-.771 0-1.139-.396-1.139-1.297h2.442v-.275c.001-1.224-.576-1.83-1.513-1.83zm-.914 1.602c.082-.748.435-1.101.892-1.101.405 0 .787.313.824 1.101H7.115zm4.901-1.602c-.405 0-.787.157-1.013.277v-2.136l-.779.187v5.231c.45.239 1.064.367 1.462.367 1.087 0 1.761-.683 1.761-2.085 0-1.197-.502-1.841-1.431-1.841zm-.33 3.401c-.188 0-.449-.014-.689-.119v-2.451c.3-.165.518-.247.816-.247.502 0 .848.308.848 1.258 0 1.215-.42 1.559-.975 1.559zm15.843-2.277v2.712h-.779V25.01c0-.592-.291-.697-.676-.697-.299 0-.682.135-.914.27v2.967h-.778v-3.282c.337-.202 1.049-.554 1.911-.554.898.001 1.236.353 1.236 1.125zm-9.03-2.601h.929v5.313h-.809v-3.853h-.067l-1.529 3.853h-.479l-1.529-3.762h-.067v3.762h-.674v-5.313h.906l1.679 4.188h.038l1.602-4.188zm3.462 1.477c-.989 0-1.709.652-1.709 1.963 0 1.281.683 1.964 1.709 1.964 1.027 0 1.709-.683 1.709-1.964 0-1.312-.72-1.963-1.709-1.963zm0 3.401c-.532 0-.922-.41-.922-1.438 0-1.012.428-1.439.922-1.439.51 0 .922.427.922 1.439 0 1.028-.39 1.438-.922 1.438zm24.089 1.455l1.321 1.51a7.157 7.157 0 0 1-.864.574 6.516 6.516 0 0 1-3.237.856c-3.617 0-6.568-2.95-6.568-6.567 0-3.618 2.951-6.568 6.568-6.568a6.539 6.539 0 0 1 3.286.881l-.604.541-.906-.939-1.533 1.368-.908-.994-2.859 2.574 1.832 2.019-.721.632 1.805 2.021-.717.631 2.578 2.869 1.527-1.408zm3.136-4.076l.702.781-.78.703-.703-.781.781-.703zm-14.831-.654h.803l-1.355 3.748c-.375 1.035-.832 1.574-1.693 1.574v-.613c.51 0 .824-.404 1.004-.959l-1.438-3.749h.824l.959 2.759h.045l.851-2.76zm-4.428-.126c-1.125 0-1.701.823-1.701 1.963 0 1.185.517 1.964 1.775 1.964.539 0 .987-.15 1.325-.347v-.567c-.411.245-.786.389-1.19.389-.771 0-1.14-.396-1.14-1.297h2.443v-.275c.002-1.224-.576-1.83-1.512-1.83zm-.916 1.602c.084-.748.437-1.101.894-1.101.403 0 .787.313.824 1.101h-1.718zm19.094 1.93l1.055 1.172-1.172 1.055-1.056-1.172 1.173-1.055zm-3.111-7.197l1.055 1.172-1.172 1.055-1.055-1.172 1.172-1.055zm-2.477.405l1.406 1.562-1.562 1.406-1.406-1.562 1.562-1.406zm3.44 4.177l-1.055-1.171 1.17-1.055 1.057 1.171-1.172 1.055zm1.449-1.753l.779-.703.702.781-.778.703-.703-.781zm-42.173-.641h.877l-1.215 5.313h-.81l-1.019-3.74h-.053l-.989 3.74h-.81L0 22.238h.84l.839 3.964h.053l.974-3.964h.667l1.042 3.964h.053l.765-3.964zm41.726 4.868l-1.057-1.17 1.172-1.056 1.057 1.17-1.172 1.056zm-.551-6.548l.781-.703.702.781-.78.703-.703-.781zM43.48 26.09l-1.406-1.562 1.562-1.408 1.406 1.562-1.562 1.408zm1.111 2.7l-1.405-1.562 1.561-1.406 1.406 1.562-1.562 1.406z"/></symbol></svg>