<?xml version="1.0" encoding="iso-8859-1"?>
<!-- Generator: Adobe Illustrator 19.0.0, SVG Export Plug-In . SVG Version: 6.00 Build 0)  -->
<svg version="1.1" id="Capa_1" xmlns="http://www.w3.org/2000/svg" xmlns:xlink="http://www.w3.org/1999/xlink" x="0px" y="0px"
	 viewBox="0 0 512 512" style="enable-background:new 0 0 512 512;" xml:space="preserve">
<g>
	<g>
		<path d="M196,181c-24.813,0-45,20.187-45,45c0,8.284,6.716,15,15,15s15-6.716,15-15c0-8.271,6.729-15,15-15s15,6.729,15,15
			c0,8.284,6.716,15,15,15s15-6.716,15-15C241,201.187,220.813,181,196,181z"/>
	</g>
</g>
<g>
	<g>
		<path d="M316,181c-24.813,0-45,20.187-45,45c0,8.284,6.716,15,15,15s15-6.716,15-15c0-8.271,6.729-15,15-15s15,6.729,15,15
			c0,8.284,6.716,15,15,15s15-6.716,15-15C361,201.187,340.813,181,316,181z"/>
	</g>
</g>
<g>
	<g>
		<path d="M316,271c-8.284,0-15,6.716-15,15c0,24.813-20.187,45-45,45s-45-20.187-45-45c0-8.284-6.716-15-15-15s-15,6.716-15,15
			c0,41.355,33.645,75,75,75s75-33.645,75-75C331,277.716,324.284,271,316,271z"/>
	</g>
</g>
<g>
	<g>
		<path d="M256,91c-90.981,0-165,74.019-165,165s74.019,165,165,165s165-74.019,165-165S346.981,91,256,91z M256,391
			c-74.439,0-135-60.561-135-135s60.561-135,135-135s135,60.561,135,135S330.439,391,256,391z"/>
	</g>
</g>
<g>
	<g>
		<path d="M256,0c-8.284,0-15,6.716-15,15v31c0,8.284,6.716,15,15,15s15-6.716,15-15V15C271,6.716,264.284,0,256,0z"/>
	</g>
</g>
<g>
	<g>
		<path d="M256,451c-8.284,0-15,6.716-15,15v31c0,8.284,6.716,15,15,15s15-6.716,15-15v-31C271,457.716,264.284,451,256,451z"/>
	</g>
</g>
<g>
	<g>
		<path d="M46,241H15c-8.284,0-15,6.716-15,15s6.716,15,15,15h31c8.284,0,15-6.716,15-15S54.284,241,46,241z"/>
	</g>
</g>
<g>
	<g>
		<path d="M497,241h-31c-8.284,0-15,6.716-15,15s6.716,15,15,15h31c8.284,0,15-6.716,15-15S505.284,241,497,241z"/>
	</g>
</g>
<g>
	<g>
		<path d="M163.99,66.635l-15-25.981c-4.142-7.174-13.315-9.633-20.49-5.49c-7.174,4.142-9.632,13.316-5.49,20.49l15,25.981
			c4.144,7.178,13.32,9.63,20.49,5.49C165.674,82.983,168.132,73.809,163.99,66.635z"/>
	</g>
</g>
<g>
	<g>
		<path d="M388.99,456.346l-15-25.981c-4.141-7.174-13.315-9.632-20.49-5.49c-7.174,4.142-9.632,13.316-5.49,20.49l15,25.981
			c4.144,7.178,13.32,9.63,20.49,5.49C390.674,472.694,393.132,463.52,388.99,456.346z"/>
	</g>
</g>
<g>
	<g>
		<path d="M87.125,353.5c-4.142-7.174-13.316-9.633-20.49-5.49l-25.981,15c-7.174,4.142-9.632,13.316-5.49,20.49
			c4.144,7.178,13.32,9.63,20.49,5.49l25.981-15C88.809,369.848,91.267,360.674,87.125,353.5z"/>
	</g>
</g>
<g>
	<g>
		<path d="M476.836,128.5c-4.142-7.174-13.316-9.633-20.49-5.49l-25.981,15c-7.174,4.142-9.632,13.316-5.49,20.49
			c4.144,7.178,13.32,9.63,20.49,5.49l25.981-15C478.52,144.848,480.978,135.674,476.836,128.5z"/>
	</g>
</g>
<g>
	<g>
		<path d="M81.635,138.01l-25.981-15c-7.175-4.145-16.349-1.684-20.49,5.49c-4.142,7.174-1.684,16.348,5.49,20.49l25.981,15
			c7.171,4.141,16.348,1.686,20.49-5.49C91.267,151.326,88.809,142.152,81.635,138.01z"/>
	</g>
</g>
<g>
	<g>
		<path d="M471.346,363.01l-25.981-15c-7.175-4.144-16.35-1.684-20.49,5.49c-4.142,7.174-1.684,16.348,5.49,20.49l25.981,15
			c7.171,4.141,16.348,1.686,20.49-5.49C480.978,376.326,478.52,367.152,471.346,363.01z"/>
	</g>
</g>
<g>
	<g>
		<path d="M158.5,424.875c-7.175-4.144-16.349-1.685-20.49,5.49l-15,25.981c-4.142,7.174-1.684,16.348,5.49,20.49
			c7.171,4.141,16.348,1.686,20.49-5.49l15-25.981C168.132,438.191,165.674,429.017,158.5,424.875z"/>
	</g>
</g>
<g>
	<g>
		<path d="M383.5,35.164c-7.175-4.144-16.349-1.685-20.49,5.49l-15,25.981c-4.142,7.174-1.684,16.348,5.49,20.49
			c7.171,4.141,16.348,1.686,20.49-5.49l15-25.981C393.132,48.48,390.674,39.306,383.5,35.164z"/>
	</g>
</g>
<g>
</g>
<g>
</g>
<g>
</g>
<g>
</g>
<g>
</g>
<g>
</g>
<g>
</g>
<g>
</g>
<g>
</g>
<g>
</g>
<g>
</g>
<g>
</g>
<g>
</g>
<g>
</g>
<g>
</g>
</svg>
