<?xml version="1.0" encoding="iso-8859-1"?>
<!-- Generator: Adobe Illustrator 16.0.0, SVG Export Plug-In . SVG Version: 6.00 Build 0)  -->
<!DOCTYPE svg PUBLIC "-//W3C//DTD SVG 1.1//EN" "http://www.w3.org/Graphics/SVG/1.1/DTD/svg11.dtd">
<svg version="1.1" id="Capa_1" xmlns="http://www.w3.org/2000/svg" xmlns:xlink="http://www.w3.org/1999/xlink" x="0px" y="0px"
	 width="49.047px" height="49.047px" viewBox="0 0 49.047 49.047" style="enable-background:new 0 0 49.047 49.047;"
	 xml:space="preserve">
<g>
	<g id="Layer_1_copy_47_">
		<path d="M31.15,22.536c-0.28-0.344-0.631-0.616-1.051-0.82c-0.422-0.203-0.91-0.305-1.473-0.305c-0.561,0-1.053,0.102-1.476,0.305
			c-0.424,0.204-0.774,0.477-1.057,0.82c-0.28,0.343-0.489,0.739-0.631,1.186c-0.141,0.447-0.211,0.917-0.211,1.411
			c0,0.494,0.07,0.966,0.211,1.41c0.142,0.446,0.352,0.84,0.631,1.183c0.279,0.34,0.633,0.61,1.057,0.813
			c0.423,0.202,0.915,0.305,1.476,0.305c0.562,0,1.051-0.103,1.473-0.305c0.42-0.203,0.771-0.476,1.051-0.813
			c0.279-0.343,0.49-0.732,0.63-1.183c0.141-0.444,0.21-0.916,0.21-1.41c0-0.493-0.069-0.963-0.21-1.411
			C31.641,23.275,31.43,22.879,31.15,22.536z M31.155,26.278c-0.104,0.377-0.264,0.713-0.48,1.011
			c-0.215,0.297-0.491,0.534-0.83,0.715c-0.336,0.181-0.74,0.271-1.215,0.271s-0.881-0.09-1.222-0.271
			c-0.34-0.181-0.618-0.418-0.835-0.715c-0.217-0.298-0.377-0.634-0.48-1.011c-0.103-0.377-0.153-0.76-0.153-1.146
			c0-0.396,0.052-0.777,0.153-1.151c0.104-0.373,0.266-0.708,0.48-1.005c0.217-0.297,0.495-0.535,0.835-0.716
			c0.341-0.18,0.747-0.27,1.222-0.27s0.879,0.09,1.215,0.27c0.339,0.181,0.613,0.419,0.83,0.716c0.219,0.297,0.377,0.632,0.48,1.005
			c0.104,0.374,0.155,0.757,0.155,1.151C31.311,25.519,31.258,25.901,31.155,26.278z M24.406,21.56h0.681l-1.97,7.145h-0.722
			l-1.811-6.394h-0.02l-1.801,6.394h-0.74l-1.98-7.145h0.73l1.621,6.253h0.02l1.741-6.253h0.85l1.752,6.253h0.02L24.406,21.56z
			 M33.531,28.123h4.002v0.582h-4.683V21.56h0.681V28.123z M45.486,21.56l-2.638,6.563h-3.945v-6.562h-0.683v7.145h4.395h0.29h0.43
			l0.861-2.223h3.25l0.871,2.223h0.729l-2.801-7.145L45.486,21.56L45.486,21.56z M44.406,25.901l1.431-3.661l1.381,3.661H44.406z
			 M5.769,23.21c-0.461-0.608-0.968-1.203-1.301-1.88c-0.484-0.98-0.572-2.328,0.7-3.243c-1.265,0.574-2.534,1.14-3.793,1.726
			c-0.862,0.402-1.283,1.104-1.266,2.052c0.017,0.912,0.402,1.692,0.956,2.388c0.521,0.654,1.074,1.284,1.627,1.913
			c0.047,0.056,0.085,0.104,0.115,0.151c0.004,0.004,0.011,0.013,0.015,0.017c-0.308,0.131-0.613,0.271-0.909,0.407
			c-0.21,0.099-0.42,0.193-0.632,0.287c-1.164,0.517-1.56,1.513-1.083,2.73c0.287,0.74,0.946,1.201,1.718,1.201
			c0.159,0,0.324-0.021,0.487-0.061l0.029-0.01c0.176-0.068,0.334-0.154,0.479-0.25c1.26-0.548,2.507-1.125,3.739-1.728
			c0.808-0.396,1.128-1.125,1.146-2.013c0.014-0.729-0.223-1.328-0.638-1.938C6.743,24.353,6.22,23.804,5.769,23.21z M2.29,30.487
			c-0.126,0.029-0.251,0.043-0.373,0.043c-0.601,0-1.094-0.346-1.32-0.926c-0.391-1.008-0.095-1.764,0.859-2.186
			c0.214-0.096,0.425-0.191,0.638-0.291c0.315-0.146,0.641-0.297,0.965-0.434c0.022-0.008,0.042-0.019,0.062-0.025
			c0.11,0.143,0.232,0.316,0.345,0.521c0.17,0.332,0.298,0.738,0.269,1.182C3.682,29.134,3.277,30.087,2.29,30.487z M12.581,21.56
			H10.11v7.145h2.471c1.088-0.026,1.906-0.332,2.457-0.916c0.55-0.584,0.825-1.47,0.825-2.656c0-1.188-0.275-2.072-0.825-2.656
			C14.487,21.892,13.669,21.587,12.581,21.56z M15.012,26.502c-0.113,0.381-0.289,0.69-0.53,0.933
			c-0.239,0.239-0.545,0.414-0.915,0.522c-0.37,0.11-0.813,0.166-1.325,0.166h-1.451v-5.982h1.451c0.513,0,0.955,0.056,1.325,0.165
			c0.37,0.11,0.676,0.285,0.915,0.525c0.241,0.24,0.417,0.551,0.53,0.931c0.114,0.38,0.17,0.837,0.17,1.372
			C15.182,25.666,15.127,26.123,15.012,26.502z"/>
	</g>
</g>
<g>
</g>
<g>
</g>
<g>
</g>
<g>
</g>
<g>
</g>
<g>
</g>
<g>
</g>
<g>
</g>
<g>
</g>
<g>
</g>
<g>
</g>
<g>
</g>
<g>
</g>
<g>
</g>
<g>
</g>
</svg>
